<?xml version="1.0" standalone="no"?>
<!DOCTYPE svg PUBLIC "-//W3C//DTD SVG 1.1//EN" "http://www.w3.org/Graphics/SVG/1.1/DTD/svg11.dtd" >
<!--
2013-9-30: Created.
-->
<svg>
<metadata>
Created by iconfont
</metadata>
<defs>

<font id="iconfont" horiz-adv-x="1024" >
  <font-face
    font-family="iconfont"
    font-weight="500"
    font-stretch="normal"
    units-per-em="1024"
    ascent="896"
    descent="-128"
  />
    <missing-glyph />
    
    <glyph glyph-name="feedback" unicode="&#58882;" d="M409.6 281.6c7.314286-7.314286 14.628571-14.628571 29.257143-14.628571s21.942857 7.314286 29.257143 7.314285L1016.685714 830.171429c0 7.314286 7.314286 21.942857 7.314286 29.257142s-7.314286 21.942857-7.314286 29.257143c-14.628571 0-21.942857 7.314286-29.257143 7.314286s-21.942857-7.314286-29.257142-7.314286L409.6 332.79999999999995c-14.628571-14.628571-14.628571-36.571429 0-51.2z m541.257143-277.942857c0-29.257143-21.942857-58.514286-58.514286-58.514286H131.657143c-36.571429 0-58.514286 29.257143-58.514286 58.514286V764.342857c0 36.571429 21.942857 58.514286 58.514286 58.514286h519.314286c21.942857 0 36.571429 14.628571 36.571428 36.571428S672.914286 896 650.971429 896H95.085714C43.885714 896 0 852.114286 0 800.914286v-826.514286c0-58.514286 43.885714-102.4 95.085714-102.4h826.514286c51.2 0 95.085714 43.885714 95.085714 95.085714v585.142857c7.314286 21.942857-7.314286 36.571429-29.257143 36.571429s-36.571429-14.628571-36.571428-36.571429"  horiz-adv-x="1024" />

    
    <glyph glyph-name="more-old" unicode="&#58883;" d="M608.6656 360.3456a25.7024 25.7024 0 0 0-18.1248 7.4752L414.8224 543.5904a25.6 25.6 0 0 0 36.1984 36.1984l175.7184-175.7184a25.6 25.6 0 0 0-18.0736-43.7248zM432.9472 184.57600000000002a25.6 25.6 0 0 0-18.1248 43.6736l175.7184 175.7696a25.6 25.6 0 0 0 36.1984-36.1984l-175.7184-175.7696a25.7024 25.7024 0 0 0-18.0736-7.4752zM512-122.93119999999999c-280.576 0-508.8768 228.3008-508.8768 508.8768S231.424 894.8224 512 894.8224s508.8768-228.2496 508.8768-508.8768S792.576-122.93119999999999 512-122.93119999999999z m0 966.5536c-252.3648 0-457.6768-205.312-457.6768-457.6768 0-252.416 205.312-457.6768 457.6768-457.6768 252.416 0 457.6768 205.312 457.6768 457.6768S764.416 843.6224 512 843.6224z"  horiz-adv-x="1024" />

    
    <glyph glyph-name="headset" unicode="&#58887;" d="M73.090858 383.634547h-73.090649A513.023269 513.023269 0 0 0 512.438753 896.073091c279.133191 0 509.076374-227.092648 512.438544-506.225839l-73.09065-0.877088C948.936112 628.268951 751.81063 822.982441 512.438753 822.982441A439.713348 439.713348 0 0 1 73.090858 383.634547zM201.51113 319.095503c40.272948 0 73.09065-32.817702 73.090649-73.090649v-146.839115c0-40.272948-32.817702-73.09065-73.090649-73.09065H146.473871c-40.272948 0-73.09065 32.817702-73.09065 73.09065V319.095503h128.127909m0 73.09065H0.292571v-293.020414a146.181299 146.181299 0 0 1 146.1813-146.181299h55.037259a146.181299 146.181299 0 0 1 146.181299 146.181299V246.00485400000002a146.181299 146.181299 0 0 1-146.181299 146.181299zM950.471015 327.13547500000004v-219.929765c0-40.272948-32.817702-73.09065-73.090649-73.090649h-55.037259c-40.272948 0-73.09065 32.817702-73.09065 73.090649V254.04482499999995c0 40.272948 32.817702 73.09065 73.09065 73.09065H950.471015m73.09065 73.090649h-201.218558a146.181299 146.181299 0 0 1-146.181299-146.181299v-146.839115a146.181299 146.181299 0 0 1 146.181299-146.181299H877.380366a146.181299 146.181299 0 0 1 146.181299 146.181299V400.226124z"  horiz-adv-x="1025" />

    
    <glyph glyph-name="triangle" unicode="&#58893;" d="M288.374154-113.58523100000002a78.690462 78.690462 0 0 0-78.848 78.769231V746.653538a78.926769 78.926769 0 0 0 128.866461 60.731077l474.427077-390.774153c33.476923-27.569231 38.281846-77.272615 10.870154-110.749539l-10.870154-10.712615h0.07877L338.313846-95.70461499999999a78.375385 78.375385 0 0 0-49.939692-17.880616zM288.295385 746.653538v-781.548307l474.663384 390.852923-474.663384 390.695384z"  horiz-adv-x="1024" />

    
    <glyph glyph-name="batch" unicode="&#58896;" d="M85.333333 782.222222h739.555556a28.444444 28.444444 0 0 0 0-56.888889h-739.555556a28.444444 28.444444 0 0 0 0 56.888889z m0-341.333333h455.452445a28.444444 28.444444 0 0 0 0-56.888889H85.333333a28.444444 28.444444 0 0 0 0 56.888889z m0-341.333333h284.444445a28.444444 28.444444 0 0 0 0-56.888889h-284.444445a28.444444 28.444444 0 0 0 0 56.888889zM515.185778 174.08000000000004a28.444444 28.444444 0 0 0 40.96 39.537778l118.556444-122.766222a28.444444 28.444444 0 1 0-40.96-39.480889L515.185778 174.08000000000004zM674.360889 50.972443999999996a28.444444 28.444444 0 1 0-40.277333 40.277334l281.6 281.6a28.444444 28.444444 0 0 0 40.220444-40.277334l-281.6-281.6z"  horiz-adv-x="1080" />

    
    <glyph glyph-name="morelist" unicode="&#58897;" d="M512-14.222221999999988A398.222222 398.222222 0 1 1 512 782.222222a398.222222 398.222222 0 0 1 0-796.444444z m0-56.888889A455.111111 455.111111 0 1 0 512 839.111111a455.111111 455.111111 0 0 0 0-910.222222zM284.444444 327.11111100000005a56.888889 56.888889 0 1 0 0 113.777778 56.888889 56.888889 0 0 0 0-113.777778z m227.555556 0a56.888889 56.888889 0 1 0 0 113.777778 56.888889 56.888889 0 0 0 0-113.777778z m227.555556 0a56.888889 56.888889 0 1 0 0 113.777778 56.888889 56.888889 0 0 0 0-113.777778z"  horiz-adv-x="1024" />

    
    <glyph glyph-name="rankings" unicode="&#58898;" d="M824.888889 384a28.444444 28.444444 0 0 0 28.444444-28.444444v-341.333334a28.444444 28.444444 0 0 0-56.888889 0v341.333334a28.444444 28.444444 0 0 0 28.444445 28.444444zM540.444444 668.444444a28.444444 28.444444 0 0 0 28.444445-28.444444v-625.777778a28.444444 28.444444 0 0 0-56.888889 0v625.777778a28.444444 28.444444 0 0 0 28.444444 28.444444zM256 497.777778a28.444444 28.444444 0 0 0 28.444444-28.444445v-455.111111a28.444444 28.444444 0 0 0-56.888888 0v455.111111a28.444444 28.444444 0 0 0 28.444444 28.444445z"  horiz-adv-x="1080" />

    
    <glyph glyph-name="money" unicode="&#58900;" d="M540.444444-14.222221999999988a426.666667 426.666667 0 1 1 0 853.333333 426.666667 426.666667 0 0 1 0-853.333333z m0-56.888889a483.555556 483.555556 0 1 0 0 967.111111 483.555556 483.555556 0 0 0 0-967.111111zM568.888889 384h142.222222a28.444444 28.444444 0 1 0 0-56.888889H568.888889v-195.697778a28.444444 28.444444 0 1 0-56.888889 0V327.11111100000005H369.777778a28.444444 28.444444 0 1 0 0 56.888889H512V497.777778H369.777778a28.444444 28.444444 0 1 0 0 56.888889h341.333333a28.444444 28.444444 0 1 0 0-56.888889H568.888889v-113.777778zM399.644444 626.801778a28.444444 28.444444 0 1 0 40.220445 40.220444l120.718222-120.661333a28.444444 28.444444 0 0 0-40.277333-40.277333l-120.604445 120.718222zM641.024 667.022222a28.444444 28.444444 0 1 0 40.220444-40.220444L560.583111 506.083556a28.444444 28.444444 0 1 0-40.277333 40.277333l120.718222 120.604444z"  horiz-adv-x="1080" />

    
    <glyph glyph-name="radiostation" unicode="&#58901;" d="M113.777778 611.555556v-568.888889h796.444444V611.555556H113.777778z m0 56.888888h796.444444a56.888889 56.888889 0 0 0 56.888889-56.888888v-568.888889a56.888889 56.888889 0 0 0-56.888889-56.888889H113.777778a56.888889 56.888889 0 0 0-56.888889 56.888889V611.555556a56.888889 56.888889 0 0 0 56.888889 56.888888zM95.345778 613.376a28.444444 28.444444 0 0 0-20.024889 53.248l455.111111 170.666667a28.444444 28.444444 0 1 0 20.024889-53.248l-455.111111-170.666667zM682.666667 213.33333300000004a113.777778 113.777778 0 1 1 0 227.555556 113.777778 113.777778 0 0 1 0-227.555556z m0-56.888889a170.666667 170.666667 0 1 0 0 341.333334 170.666667 170.666667 0 0 0 0-341.333334z"  horiz-adv-x="1024" />

    
    <glyph glyph-name="notcollection" unicode="&#58902;" d="M562.858667 630.328889a52.792889 52.792889 0 0 0-80.327111 0l-39.708445 46.705778a188.416 188.416 0 0 1-131.242667 52.337777 188.302222 188.302222 0 0 1-131.185777-52.337777 172.487111 172.487111 0 0 1 0.341333-250.652445l323.242667-323.128889a26.396444 26.396444 0 0 1 37.376 0l323.640889 323.470223a172.373333 172.373333 0 0 1 0 250.311111 188.416 188.416 0 0 1-131.242667 52.337777c-48.526222 0-95.175111-18.033778-130.275556-51.484444l-40.618666-47.502222z m1.308444 82.887111l1.706667 1.877333A241.208889 241.208889 0 0 0 733.752889 782.222222a241.208889 241.208889 0 0 0 167.879111-67.128889 225.109333 225.109333 0 0 0 0.341333-326.087111l-323.299555-323.128889a79.246222 79.246222 0 0 0-112.014222 0L143.758222 388.664889a225.166222 225.166222 0 0 0 0 326.428444A241.152 241.152 0 0 0 311.523556 782.222222c62.464 0 122.652444-23.552 169.642666-69.006222l41.472-48.526222 41.472 48.526222z"  horiz-adv-x="1080" />

    
    <glyph glyph-name="collection" unicode="&#58903;" d="M578.958222 717.880889l-44.714666-52.337778a28.444444 28.444444 0 0 0-43.235556 0l-44.657778 52.337778A231.424 231.424 0 0 1 285.354667 782.222222c-58.368 0-116.622222-21.447111-161.109334-64.341333a214.072889 214.072889 0 0 1 0-310.613333l348.16-348.046223a56.888889 56.888889 0 0 1 80.440889 0l348.16 348.046223a214.129778 214.129778 0 0 1 0 310.613333A231.424 231.424 0 0 1 740.067556 782.222222c-58.311111 0-116.622222-21.447111-161.052445-64.341333z"  horiz-adv-x="1080" />

    
    <glyph glyph-name="download" unicode="&#58904;" d="M511.260444 179.256889a28.444444 28.444444 0 0 0-47.957333-14.336L181.873778 446.350222a28.444444 28.444444 0 0 0 40.220444 40.220445L455.111111 253.55377799999997V753.777778a28.444444 28.444444 0 0 0 56.888889 0v-568.092445a28.558222 28.558222 0 0 0-0.739556-6.428444z m-352.483555-136.817778h682.894222a28.330667 28.330667 0 1 0 0-56.661333H158.72a28.330667 28.330667 0 0 0 0 56.661333zM787.968 486.570667a28.444444 28.444444 0 0 1-40.220444 0l-281.429334-281.429334a28.444444 28.444444 0 1 1 40.220445-40.220444l281.429333 281.429333a28.444444 28.444444 0 0 1 0 40.220445z"  horiz-adv-x="1024" />

    
    <glyph glyph-name="share" unicode="&#58905;" d="M933.546667 686.364444a28.444444 28.444444 0 0 0-22.072889-46.364444c-236.032 0-427.235556-191.032889-427.235556-426.666667a28.444444 28.444444 0 1 0-56.888889 0c0 246.613333 184.775111 450.104889 423.651556 479.800889L765.383111 778.808889a28.444444 28.444444 0 0 0 0 40.220444h0.056889a28.444444 28.444444 0 0 0 40.220444 0l120.718223-120.604444c3.413333-3.470222 5.802667-7.623111 7.111111-11.946667zM162.247111 42.66666699999996H845.937778V355.555556a28.444444 28.444444 0 1 0 56.888889 0v-341.333334a28.330667 28.330667 0 0 0-28.444445-28.444444H133.859556a28.444444 28.444444 0 0 0-28.444445 28.444444v739.555556a28.444444 28.444444 0 0 0 32.597333 28.16A28.672 28.672 0 0 0 142.222222 782.222222h341.333334a28.444444 28.444444 0 0 0 0-56.888889H162.304v-682.666666z"  horiz-adv-x="1024" />

    
    <glyph glyph-name="play" unicode="&#58906;" d="M802.133333 384.113778L314.595556 708.039111V65.99111100000005l487.537777 318.122667z m31.061334-47.672889l-487.537778-318.122667a56.888889 56.888889 0 0 0-87.950222 47.672889V708.039111a56.888889 56.888889 0 0 0 88.405333 47.388445l487.537778-323.982223a56.888889 56.888889 0 0 0-0.455111-95.004444z"  horiz-adv-x="1024" />

    
    <glyph glyph-name="addbtn" unicode="&#58907;" d="M568.888889 440.888889h329.557333a28.444444 28.444444 0 1 0 0-56.888889H568.888889v-369.777778a28.444444 28.444444 0 1 0-56.888889 0V384H158.890667a28.444444 28.444444 0 0 0 0 56.888889H512V753.777778a28.444444 28.444444 0 0 0 56.888889 0V440.888889z"  horiz-adv-x="1080" />

    
    <glyph glyph-name="download-direct" unicode="&#58908;" d="M28.445013 497.777778h910.222223a28.444444 28.444444 0 0 0 0-56.888889h-910.222223a28.444444 28.444444 0 0 0 0 56.888889zM91.705458-73.44355599999994c-35.612444 0-67.697778 22.584889-79.872 56.263112A111.559111 111.559111 0 0 0 0.000569 33.22311100000002V673.223111C0.000569 730.282667 43.46368 782.222222 91.250347 782.222222h394.296889c48.128 0 84.48-46.876444 84.48-108.999111v-5.916444h314.652444c38.115556 0 82.432-37.319111 82.432-85.447111V14.222221999999988c0-52.622222-31.630222-85.333333-82.432-85.333333l-792.974222-2.332445zM91.250347 725.333333C79.189902 725.333333 56.889458 703.829333 56.889458 673.223111v-640c0-9.272889 2.218667-17.976889 7.224889-28.273778 5.233778-13.937778 15.815111-21.504 27.477333-21.504L884.565902-14.222221999999988c17.066667 0 25.656889 4.380444 25.656889 28.444444V581.8026669999999c0 15.587556-18.545778 28.558222-25.543111 28.558222H513.138347V673.223111c0 30.72-14.563556 52.110222-27.591111 52.110222H91.250347z"  horiz-adv-x="1024" />

    
    <glyph glyph-name="timing-shutdown" unicode="&#58909;" d="M458.105263 842.105263a26.947368 26.947368 0 0 0 26.947369-26.947368v-431.157895a26.947368 26.947368 0 0 0-53.894737 0v431.157895a26.947368 26.947368 0 0 0 26.947368 26.947368zM264.515368 763.041684a26.947368 26.947368 0 0 0 25.222737-47.642947 377.263158 377.263158 0 0 1 176.289684-710.871579 26.947368 26.947368 0 1 0 0-53.894737A431.157895 431.157895 0 0 0 264.515368 763.041684zM875.250526 518.036211a26.947368 26.947368 0 1 0-51.2-17.030737 379.149474 379.149474 0 0 1-179.469473 213.153684 26.947368 26.947368 0 0 0 25.6 47.427368 433.044211 433.044211 0 0 0 205.069473-243.60421zM727.578947 303.15789500000005a26.947368 26.947368 0 0 0 26.947369-26.947369v-108.867368a26.947368 26.947368 0 0 0-25.869474-26.947369h-1.077895a25.869474 25.869474 0 0 0-26.947368 25.869474V276.21052599999996a26.947368 26.947368 0 0 0 26.947368 26.947369zM862.315789 168.42105300000003a26.947368 26.947368 0 0 0-26.947368-26.947369h-107.789474a26.947368 26.947368 0 0 0 0 53.894737h107.789474a26.947368 26.947368 0 0 0 26.947368-26.947368zM727.578947-20.21052599999996a188.631579 188.631579 0 1 1 0 377.263158 188.631579 188.631579 0 0 1 0-377.263158z m0-53.894737a242.526316 242.526316 0 1 0 0 485.052631 242.526316 242.526316 0 0 0 0-485.052631z"  horiz-adv-x="1024" />

    
    <glyph glyph-name="set" unicode="&#58910;" d="M512 270.222222a113.777778 113.777778 0 1 1 0 227.555556 113.777778 113.777778 0 0 1 0-227.555556z m0-56.888889a170.666667 170.666667 0 1 0 0 341.333334 170.666667 170.666667 0 0 0 0-341.333334zM539.875556 815.047111a56.888889 56.888889 0 0 1-55.751112 0l-341.333333-192A56.888889 56.888889 0 0 1 113.777778 573.44v-378.88a56.888889 56.888889 0 0 1 29.013333-49.607111l341.333333-192a56.888889 56.888889 0 0 1 55.751112 0l341.333333 192a56.888889 56.888889 0 0 1 29.013333 49.607111V573.44a56.888889 56.888889 0 0 1-29.013333 49.607111l-341.333333 192z m27.875555 49.550222l341.333333-192A113.777778 113.777778 0 0 0 967.111111 573.44v-378.88a113.777778 113.777778 0 0 0-58.026667-99.157333l-341.333333-192a113.777778 113.777778 0 0 0-111.502222 0l-341.333333 192A113.777778 113.777778 0 0 0 56.888889 194.55999999999995V573.44a113.777778 113.777778 0 0 0 58.026667 99.157333l341.333333 192a113.777778 113.777778 0 0 0 111.502222 0z"  horiz-adv-x="1024" />

    
    <glyph glyph-name="export" unicode="&#58911;" d="M700.631579 222.315789a26.947368 26.947368 0 0 0 53.894737 0V87.57894699999997c0-54.810947-49.044211-107.789474-107.789474-107.789473H161.684211c-58.745263 0-107.789474 52.978526-107.789474 107.789473V680.421053c0 54.810947 49.044211 107.789474 107.789474 107.789473h485.052631c58.745263 0 107.789474-52.978526 107.789474-107.789473v-186.745264c0-14.928842-12.072421-28.833684-26.947369-28.833684s-26.947368 13.904842-26.947368 28.833684V680.421053c0 23.336421-23.390316 53.894737-53.894737 53.894736H161.684211c-30.504421 0-53.894737-30.558316-53.894737-53.894736v-592.842106c0-23.336421 23.390316-53.894737 53.894737-53.894736h485.052631c30.504421 0 53.894737 30.558316 53.894737 53.894736v134.736842zM859.082105 354.842947l-41.391158 41.391158a26.947368 26.947368 0 0 0 38.103579 38.103579l76.261053-76.207158a26.947368 26.947368 0 0 0 4.742737-6.467368 26.947368 26.947368 0 0 0-12.665263-50.714947h-485.052632a26.947368 26.947368 0 1 0 0 53.894736h420.001684z"  horiz-adv-x="1024" />

    
    <glyph glyph-name="song" unicode="&#58912;" d="M943.157895 285.85768399999995a434.283789 434.283789 0 0 0-416.013474-308.277895 434.283789 434.283789 0 0 0-415.797895 307.792843C105.094737 306.068211 107.789474 309.086316 107.789474 330.10526300000004l26.947368 26.947369c26.947368 0 25.168842-36.810105 30.558316-54.649264 47.535158-157.157053 193.859368-267.102316 361.849263-267.102315 168.205474 0 314.637474 110.106947 362.010947 267.533473a28.133053 28.133053 0 0 0 35.301053 19.078737 28.995368 28.995368 0 0 0 18.701474-36.109474zM943.157895 531.6715790000001c4.581053-15.306105 0-12.934737-26.947369-12.934737s-22.366316-15.252211-26.947368 0c-47.427368 157.372632-193.913263 263.437474-362.118737 263.437474-167.989895 0-314.314105-109.945263-361.849263-267.102316-5.389474-17.839158-9.431579-36.109474-12.126316-54.703158a28.348632 28.348632 0 0 0-32.013474-24.360421 28.779789 28.779789 0 0 0-23.875368 32.714105c3.072 21.557895 7.760842 42.684632 14.012632 63.380211a434.283789 434.283789 0 0 0 415.851789 307.792842 434.283789 434.283789 0 0 0 416.067368-308.277895zM85.315368 173.97221100000002a26.947368 26.947368 0 0 0-47.966315 24.46821l73.350736 144.060632a26.947368 26.947368 0 1 0 48.020211-24.468211l-73.404632-144.060631zM942.133895 508.712421a26.947368 26.947368 0 1 0-49.960421 20.156632l58.745263 145.731368a26.947368 26.947368 0 1 0 50.014316-20.156632l-58.745264-145.731368z"  horiz-adv-x="1024" />

    
    <glyph glyph-name="delete" unicode="&#58913;" d="M85.333333 668.444444h796.444445a28.444444 28.444444 0 0 0 0-56.888888h-796.444445a28.444444 28.444444 0 0 0 0 56.888888zM312.888889 782.222222h341.333333a28.444444 28.444444 0 0 0 0-56.888889h-341.333333a28.444444 28.444444 0 0 0 0 56.888889zM369.777778 497.777778a28.444444 28.444444 0 0 0 28.444444-28.444445v-341.333333a28.444444 28.444444 0 0 0-56.888889 0v341.333333a28.444444 28.444444 0 0 0 28.444445 28.444445zM597.333333 497.777778a28.444444 28.444444 0 0 0 28.444445-28.444445v-341.333333a28.444444 28.444444 0 0 0-56.888889 0v341.333333a28.444444 28.444444 0 0 0 28.444444 28.444445zM170.666667 611.555556v-625.777778h625.777777V611.555556H170.666667z m0 56.888888h625.777777a56.888889 56.888889 0 0 0 56.888889-56.888888v-625.777778a56.888889 56.888889 0 0 0-56.888889-56.888889H170.666667a56.888889 56.888889 0 0 0-56.888889 56.888889V611.555556a56.888889 56.888889 0 0 0 56.888889 56.888888z"  horiz-adv-x="1024" />

    
    <glyph glyph-name="import" unicode="&#58914;" d="M891.843765 353.88235299999997H512a30.117647 30.117647 0 0 0 0 60.235294h407.431529c12.649412 0 23.552-7.408941 28.672-18.070588a29.997176 29.997176 0 0 0 6.686118-21.504c-19.034353-233.472-214.919529-414.659765-450.981647-414.659765-249.856 0-452.427294 202.270118-452.427294 451.764706 0 249.494588 202.571294 451.764706 452.427294 451.764706 130.349176 0 251.783529-55.356235 337.076706-150.347294a30.117647 30.117647 0 1 0-44.815059-40.237177 391.408941 391.408941 0 0 1-292.261647 130.349177c-216.606118 0-392.192-175.284706-392.192-391.529412s175.585882-391.529412 392.192-391.529412A392.131765 392.131765 0 0 1 891.843765 353.88235299999997zM621.025882 531.215059a30.117647 30.117647 0 1 0 41.86353-43.369412L532.901647 362.315294a30.117647 30.117647 0 1 0-41.803294 43.369412l129.987765 125.530353z"  horiz-adv-x="1024" />

    
    <glyph glyph-name="tone-quality" unicode="&#58915;" d="M768 782.222222a28.444444 28.444444 0 0 0 28.444444-28.444444v-739.555556a28.444444 28.444444 0 0 0-56.888888 0v739.555556a28.444444 28.444444 0 0 0 28.444444 28.444444zM406.926222 733.297778a28.444444 28.444444 0 1 0 39.480889 40.96l163.726222-158.094222a28.444444 28.444444 0 1 0-39.537777-40.96l-163.669334 158.151111zM747.861333 733.639111a28.444444 28.444444 0 1 0 40.277334 40.277333l160.881777-160.938666a28.444444 28.444444 0 0 0-40.220444-40.220445l-160.938667 160.881778zM398.222222 753.777778a28.444444 28.444444 0 0 0 56.888889 0v-568.888889a28.444444 28.444444 0 0 0-56.888889 0v568.888889zM284.444444 42.66666699999996a113.777778 113.777778 0 1 1 0 227.555555 113.777778 113.777778 0 0 1 0-227.555555z m0-56.888889a170.666667 170.666667 0 1 0 0 341.333333 170.666667 170.666667 0 0 0 0-341.333333z"  horiz-adv-x="1080" />

    
    <glyph glyph-name="choice" unicode="&#58916;" d="M652.344889 406.755556L386.844444 605.866667a28.444444 28.444444 0 0 1-45.511111-22.755556v-398.222222a28.444444 28.444444 0 0 1 45.511111-22.755556l265.500445 199.111111a28.444444 28.444444 0 0 1 0 45.511112z"  horiz-adv-x="1024" />

    
    <glyph glyph-name="nopraise" unicode="&#58917;" d="M551.082667 694.897778L284.444444 440.888889H113.777778v-455.111111h568.888889c52.224 0 106.666667 25.543111 119.352889 76.231111L910.222222 440.888889h-341.333333l28.444444 56.888889 50.915556 140.515555a56.888889 56.888889 0 0 1-53.248 76.970667c-16.156444 0.056889-31.061333-6.599111-43.918222-20.366222zM682.666667 554.666667l-28.444445-56.888889h227.555556c56.888889 0 85.333333-28.444444 85.333333-56.888889v-28.444445l-109.909333-364.259555C838.200889-27.87555599999996 761.002667-71.11111100000005 682.666667-71.11111100000005H113.777778a56.888889 56.888889 0 0 0-56.888889 56.888889V430.876444C56.888889 462.336 82.375111 497.777778 113.777778 497.777778h142.222222l255.431111 237.909333C532.252444 758.158222 564.337778 782.222222 597.333333 782.222222a113.777778 113.777778 0 0 0 113.777778-113.777778c0-14.165333-4.949333-44.373333-9.671111-56.888888L682.666667 554.666667zM227.555556 471.267556h56.888888v-495.445334H227.555556z"  horiz-adv-x="1024" />

    
    <glyph glyph-name="fabulous" unicode="&#58918;" d="M284.216889 497.777778l244.736 237.909333a113.777778 113.777778 0 0 0 190.008889-117.475555L681.528889 497.777778h216.177778a56.888889 56.888889 0 0 0 55.751111-68.039111l-72.760889-363.633778A170.666667 170.666667 0 0 0 713.443556-71.11111100000005H113.777778a56.888889 56.888889 0 0 0-56.888889 56.888889V440.888889a56.888889 56.888889 0 0 0 56.888889 56.888889h170.439111z m-39.196445-66.901334v-455.111111h56.888889v455.111111h-56.888889z"  horiz-adv-x="1024" />

    
    <glyph glyph-name="headseting" unicode="&#58919;" d="M884.650667 70.31466699999999v307.2c0 209.749333-144.896 375.466667-317.44 375.466666H432.810667c-172.544 0-317.44-165.717333-317.44-375.466666v-307.2h-85.333334v307.2C30.122667 632.0640000000001 210.432 810.666667 432.896 810.666667h134.229333c222.464 0 402.773333-178.602667 402.773334-433.152v-307.2h-85.333334z m0 0v307.2C884.650667 587.264 739.754667 725.333333 567.210667 725.333333H432.810667c-172.544 0-317.44-138.069333-317.44-347.818666v-307.2h-85.333334v307.2C30.122667 632.0640000000001 210.432 810.666667 432.896 810.666667h134.229333c222.464 0 402.773333-178.602667 402.773334-433.152v-307.2h-85.333334zM115.456 240.98133299999995v-170.666666a85.333333 85.333333 0 0 1 85.333333-85.333334h85.76v256H115.456z m0 85.333334h171.093333a85.333333 85.333333 0 0 0 85.333334-85.333334v-256a85.333333 85.333333 0 0 0-85.333334-85.333333H200.789333a170.666667 170.666667 0 0 0-170.666666 170.666667v170.666666a85.333333 85.333333 0 0 0 85.333333 85.333334zM713.642667 240.98133299999995l-0.085334-256h85.504c47.274667 0 85.589333 38.229333 85.589334 85.333334v170.666666H713.642667z m170.837333 85.333334a85.333333 85.333333 0 0 0 85.504-85.333334v-170.666666c0-94.208-76.544-170.666667-170.922667-170.666667H713.642667a85.333333 85.333333 0 0 0-85.418667 85.333333v256a85.333333 85.333333 0 0 0 85.333333 85.333334h170.922667z"  horiz-adv-x="1024" />

    
    <glyph glyph-name="open" unicode="&#58920;" d="M32.46644 493.168669m60.339779 60.339779l0 0q60.339779 60.339779 120.679557 0l362.038672-362.038672q60.339779-60.339779 0-120.679557l0 0q-60.339779-60.339779-120.679557 0l-362.038672 362.038672q-60.339779 60.339779 0 120.679557ZM874.011336 610.690893m60.339779-60.339778l0 0q60.339779-60.339779 0-120.679558l-362.038672-362.038672q-60.339779-60.339779-120.679558 0l0 0q-60.339779 60.339779 0 120.679558l362.038672 362.038672q60.339779 60.339779 120.679558 0Z"  horiz-adv-x="1024" />

    
    <glyph glyph-name="shrink" unicode="&#58921;" d="M32.469712 189.505897m60.339779-60.339779l0 0q60.339779-60.339779 120.679557 0l362.038672 362.038672q60.339779 60.339779 0 120.679557l0 0q-60.339779 60.339779-120.679557 0l-362.038672-362.038672q-60.339779-60.339779 0-120.679557ZM874.041203 71.90366800000004m60.339779 60.339779l0 0q60.339779 60.339779 0 120.679557l-362.038672 362.038672q-60.339779 60.339779-120.679558 0l0 0q-60.339779-60.339779 0-120.679557l362.038672-362.038672q60.339779-60.339779 120.679558 0Z"  horiz-adv-x="1024" />

    
    <glyph glyph-name="unchanged" unicode="&#58922;" d="M938.666667 469.333333m0-85.333333l0 0q0-85.333333-85.333334-85.333333l-682.666666 0q-85.333333 0-85.333334 85.333333l0 0q0 85.333333 85.333334 85.333333l682.666666 0q85.333333 0 85.333334-85.333333Z"  horiz-adv-x="1109" />

    
    <glyph glyph-name="downwards" unicode="&#58923;" d="M512-42.66666699999996a85.333333 85.333333 0 0 0-85.333333 85.33333401l0 682.66666598a85.333333 85.333333 0 0 0 170.666666 0L597.333333 42.66666700999997a85.333333 85.333333 0 0 0-85.333333-85.33333401zM573.354667-16.639999999999986a85.333333 85.333333 0 0 0-120.661334-2.133333l-285.781333 275.968a85.333333 85.333333 0 1 0 118.528 122.88l285.866667-276.053334a85.333333 85.333333 0 0 0 2.048-120.661333zM451.669333-17.663999999999987a85.248 85.248 0 0 0 0 120.661333L732.672 384A85.248 85.248 0 1 0 853.333333 263.338667l-281.002666-281.002667a85.248 85.248 0 0 0-120.661334 0z"  horiz-adv-x="1024" />

    
    <glyph glyph-name="upward" unicode="&#58924;" d="M512 810.666667a85.333333 85.333333 0 0 0 85.333333-85.333334v-682.666666a85.333333 85.333333 0 0 0-170.666666 0V725.333333a85.333333 85.333333 0 0 0 85.333333 85.333334zM450.645333 784.64a85.333333 85.333333 0 0 0 120.661334 2.133333l285.781333-275.968a85.333333 85.333333 0 1 0-118.528-122.88l-285.866667 276.053334a85.333333 85.333333 0 0 0-2.048 120.661333zM572.330667 785.664a85.248 85.248 0 0 0 0-120.661333L291.328 384A85.248 85.248 0 1 0 170.666667 504.661333l281.002666 281.002667a85.248 85.248 0 0 0 120.661334 0z"  horiz-adv-x="1024" />

    
    <glyph glyph-name="tips" unicode="&#58925;" d="M518.09523766 607.9878096699999m-41.910857 0a41.910857 41.910857 0 1 1 83.821715 0 41.910857 41.910857 0 1 1-83.821715 0ZM518.09523766 508.95238067a36.571429 36.571429 0 0 0 36.571429-36.571428v-292.571429a36.571429 36.571429 0 0 0-73.142857 0v292.571429a36.571429 36.571429 0 0 0 36.571428 36.571428zM518.09523766-3.047619329999975a402.285714 402.285714 0 1 1 0 804.571429 402.285714 402.285714 0 1 1 0-804.571429z m0-73.142857a475.428571 475.428571 0 1 0 0 950.857143 475.428571 475.428571 0 0 0 0-950.857143z"  horiz-adv-x="1024" />

    
    <glyph glyph-name="close" unicode="&#58926;" d="M16.749714 824.466286a36.571429 36.571429 0 1 0 53.394286 49.956571l869.668571-930.889143a36.571429 36.571429 0 1 0-53.540571-49.956571L16.822857 824.466286zM939.739429 824.466286a36.571429 36.571429 0 1 1-53.394286 49.956571L16.676571-56.46628599999997a36.571429 36.571429 0 1 1 53.394286-49.956571L939.885714 824.466286z"  horiz-adv-x="1024" />

    
    <glyph glyph-name="comment" unicode="&#58930;" d="M232.727273 290.909091h46.545454c0-93.090909 116.363636-186.181818 232.727273-186.181818s232.727273 93.090909 232.727273 186.181818h46.545454c0-122.647273-128.837818-232.727273-265.634909-232.727273C374.458182 58.18181800000002 232.727273 153.04145500000004 232.727273 290.909091zM512-128C229.701818-128 0 101.701818 0 384S229.701818 896 512 896 1024 666.298182 1024 384s-229.701818-512-512-512z m0 977.454545C255.348364 849.454545 46.545455 640.651636 46.545455 384s208.802909-465.454545 465.454545-465.454545 465.454545 208.802909 465.454545 465.454545S768.651636 849.454545 512 849.454545zM302.545455 500.363636m-69.818182 0a69.818182 69.818182 0 1 1 139.636363 0 69.818182 69.818182 0 1 1-139.636363 0ZM721.454545 500.363636m-69.818181 0a69.818182 69.818182 0 1 1 139.636363 0 69.818182 69.818182 0 1 1-139.636363 0ZM256 267.63636399999996a23.272727 23.272727 0 1 1 0 46.545454 23.272727 23.272727 0 0 1 0-46.545454zM768 267.63636399999996a23.272727 23.272727 0 1 1 0 46.545454 23.272727 23.272727 0 0 1 0-46.545454z"  horiz-adv-x="1024" />

    
    <glyph glyph-name="source" unicode="&#58931;" d="M915.933867 366.04586700000004a409.3952 409.3952 0 0 1-409.6 409.258666c-226.235733 0-409.6-183.227733-409.6-409.258666a409.531733 409.531733 0 0 1 358.673066-406.186667 205.141333 205.141333 0 0 1 55.227734-3.140267 409.6 409.6 0 0 1 405.2992 409.326934z m-58.504534-5.802667a401.066667 401.066667 0 0 1-7.9872 59.869867 239.616 239.616 0 0 1 0.273067 19.592533c5.051733-23.7568 7.7824-48.401067 7.7824-73.659733l-0.068267-5.802667zM155.306667 366.04586700000004c0 24.7808 2.594133 49.015467 7.509333 72.362666 15.086933-16.1792 50.858667-15.837867 59.528533 8.3968 15.5648-9.284267 36.522667-10.990933 36.522667-29.559466 0-61.303467 2.184533-127.044267 57.890133-128.068267 1.570133 0 31.061333-11.195733 45.124267-47.581867 4.846933-12.561067 24.029867 0 45.124267 0 10.513067 0 0-17.681067 0-55.978666 0-38.161067 82.261333-96.8704 82.261333-96.8704-0.4096-25.258667 0.682667-45.6704 2.730667-61.986134a138.171733 138.171733 0 0 1-46.4896-6.280533 351.0272 351.0272 0 0 0-290.2016 345.565867z m437.521066-340.104534c-1.8432 8.942933-9.762133 13.789867-24.302933 9.966934 11.605333 49.3568 17.2032 77.0048 41.437867 98.030933 35.0208 30.378667 4.164267 64.1024-22.459734 60.142933-21.026133-3.140267-7.714133 26.0096-26.487466 27.648-18.773333 1.501867-43.281067 38.775467-70.2464 51.6096-14.267733 6.826667-28.330667 24.9856-50.3808 25.8048-19.592533 0.750933-48.128-16.520533-48.128-3.208533 0 42.939733-4.369067 73.5232-5.256534 85.742933-0.682667 9.898667-6.417067 3.345067 20.002134 2.730667 14.404267-0.4096 7.3728 28.8768 21.572266 30.037333 13.994667 1.092267 47.3088-13.1072 55.773867-7.441066 7.918933 5.256533 57.9584-131.413333 57.9584-22.596267 0 12.9024-6.690133 35.362133 0 47.581867 26.4192 48.3328 51.2 87.722667 49.015467 93.457066-1.2288 3.2768-27.0336 5.9392-47.7184-0.955733-6.9632-2.321067 2.2528-13.243733-7.7824-15.5648-37.4784-8.669867-70.587733 10.103467-58.9824 27.716267 11.8784 18.090667 54.8864 7.918933 58.709333 44.168533 2.116267 20.753067 3.959467 44.8512 5.12 62.737067 50.449067-7.918933 44.919467 65.467733-30.1056 73.3184a351.300267 351.300267 0 0 0 327.611733-235.861334 14.472533 14.472533 0 0 1-8.3968 3.822934c-22.664533 56.661333-77.755733 15.633067-59.050666-34.338134-100.078933-76.936533-74.478933-130.594133-41.5744-161.314133 17.271467-16.1792 33.792-40.413867 44.509866-57.890133-11.6736-34.065067 43.076267-20.411733 70.109867 37.410133a351.573333 351.573333 0 0 0-250.948267-242.756267z"  horiz-adv-x="1024" />

    
    <glyph glyph-name="playbtn" unicode="&#58932;" d="M498.627765-101.225412C223.232-101.225412 0 122.00658799999997 0 397.372235S223.232 896 498.627765 896 997.225412 672.768 997.225412 397.372235s-223.232-498.597647-498.597647-498.597647z m0 60.235294c242.115765 0 438.392471 196.276706 438.39247 438.392471S740.713412 835.764706 498.627765 835.764706 60.235294 639.488 60.235294 397.372235s196.276706-438.362353 438.392471-438.362353zM652.408471 361.682824l-184.470589-117.398589A30.117647 30.117647 0 0 0 421.647059 269.703529V504.470588a30.117647 30.117647 0 0 0 46.290823 25.419294l184.470589-117.398588a30.147765 30.147765 0 0 0 0-50.80847z"  horiz-adv-x="1024" />

    
    <glyph glyph-name="suspend" unicode="&#58933;" d="M512-128C229.232281-128 0 101.23228099999994 0 384S229.232281 896 512 896 1024 666.7677189999999 1024 384 794.767719-128 512-128z m0 53.894737C764.99986-74.10526300000004 970.105263 131.00014 970.105263 384S764.99986 842.105263 512 842.105263 53.894737 636.99986 53.894737 384 259.00014-74.10526300000004 512-74.10526300000004zM413.192982 536.7017539999999h53.894737a17.964912 17.964912 0 0 0 17.964913-17.964912v-287.438596a17.964912 17.964912 0 0 0-17.964913-17.964913h-53.894737a17.964912 17.964912 0 0 0-17.964912 17.964913V518.736842a17.964912 17.964912 0 0 0 17.964912 17.964912zM574.877193 536.7017539999999h53.894737a17.964912 17.964912 0 0 0 17.964912-17.964912v-287.438596a17.964912 17.964912 0 0 0-17.964912-17.964913h-53.894737a17.964912 17.964912 0 0 0-17.964912 17.964913V518.736842a17.964912 17.964912 0 0 0 17.964912 17.964912z"  horiz-adv-x="1024" />

    
    <glyph glyph-name="next" unicode="&#58934;" d="M682.581333 384L170.752 726.442667v-684.885334L682.581333 384z m24.234667-34.218667L194.986667 7.338666999999987a43.52 43.52 0 0 0-59.477334 10.666666 40.96 40.96 0 0 0-7.509333 23.552V726.442667C128 749.397333 147.157333 768 170.752 768c8.661333 0 17.109333-2.56 24.234667-7.338667l511.829333-342.442666a40.832 40.832 0 0 0 0-68.437334zM810.666667 19.200000000000045c0-10.624-9.557333-19.2-21.333334-19.2s-21.333333 8.576-21.333333 19.2v729.6c0 10.624 9.557333 19.2 21.333333 19.2s21.333333-8.576 21.333334-19.2v-729.6z"  horiz-adv-x="1024" />

    
    <glyph glyph-name="microphone" unicode="&#58944;" d="M199.744 512C177.792 512 160 526.336 160 544s17.792 32 39.744 32H376.32c21.888 0 39.68-14.336 39.68-32s-17.792-32-39.744-32H199.744zM192 256a32 32 0 0 0 0 64h142.208a32 32 0 0 0 0-64H192zM329.152-128C306.432-128 288-113.66399999999999 288-96s18.432 32 41.152 32h365.696c22.72 0 41.152-14.336 41.152-32s-18.432-32-41.152-32H329.152zM701.824 256C685.312 256 672 270.336 672 288s13.312 32 29.824 32h132.416c16.448 0 29.76-14.336 29.76-32s-13.312-32-29.824-32H701.824zM647.744 512C625.792 512 608 526.336 608 544s17.792 32 39.744 32H824.32c21.888 0 39.68-14.336 39.68-32s-17.792-32-39.744-32H647.744zM480 64h64v-192H480zM768 0h-512c-52.928 0-96 43.072-96 96v640C160 788.928 203.072 832 256 832h512c52.928 0 96-43.072 96-96v-640c0-52.928-43.072-96-96-96zM256 768a32 32 0 0 1-32-32v-640a32 32 0 0 1 32-32h512c17.6 0 32 14.4 32 32v640a32 32 0 0 1-32 32h-512z"  horiz-adv-x="1024" />

    
    <glyph glyph-name="no-network" unicode="&#58945;" d="M291.746909 466.664727h-18.618182V617.7512730000001a4.747636 4.747636 0 0 0 3.630546 4.561454l155.182545 34.629818a4.654545 4.654545 0 0 0 5.678546-4.561454v-160.954182H418.909091V635.345455l-127.162182-28.765091zM238.964364 416.954182a52.782545 52.782545 0 1 0 52.689454 52.782545 52.782545 52.782545 0 0 0-52.689454-52.782545z m0 86.946909a34.164364 34.164364 0 1 1 34.071272-34.164364 34.164364 34.164364 0 0 1-34.071272 34.164364zM384.837818 435.572364A52.782545 52.782545 0 1 0 437.527273 488.354909a52.782545 52.782545 0 0 0-52.689455-52.782545z m0 86.946909A34.164364 34.164364 0 1 1 418.909091 488.354909a34.164364 34.164364 0 0 1-34.071273 34.164364zM287.939491 580.738327l134.832873 30.273164 4.096-18.245818-134.832873-30.273164zM1439.278545 51.66545499999995a55.854545 55.854545 0 1 0 65.163637 44.683636 55.854545 55.854545 0 0 0-65.163637-44.683636z m16.849455 90.298181a36.212364 36.212364 0 1 1 28.858182-42.170181 36.212364 36.212364 0 0 1-28.858182 42.170181zM1504.442182 96.34909100000004l-18.618182 3.444364 26.344727 141.40509a9.309091 9.309091 0 0 0 14.056728 6.237091l31.650909-19.549091a9.309091 9.309091 0 0 0 2.978909-12.753454 9.309091 9.309091 0 0 0-12.753455-3.072l-20.107636 12.381091zM1247.418182 691.2a46.545455 46.545455 0 0 0 46.545454-46.545455v-456.145454a46.545455 46.545455 0 0 0-46.545454-46.545455H595.781818a46.545455 46.545455 0 0 0-46.545454 46.545455V644.654545a46.545455 46.545455 0 0 0 46.545454 46.545455h651.636364m0 27.927273H595.781818a74.472727 74.472727 0 0 1-74.472727-74.472728v-456.145454a74.472727 74.472727 0 0 1 74.472727-74.472727h651.636364a74.472727 74.472727 0 0 1 74.472727 74.472727V644.654545a74.472727 74.472727 0 0 1-74.472727 74.472728zM549.236364 230.39999999999998h744.727272v-27.927273H549.236364zM781.963636 53.52727300000004m13.963637 0l251.345454 0q13.963636 0 13.963637-13.963637l0 0q0-13.963636-13.963637-13.963636l-251.345454 0q-13.963636 0-13.963637 13.963636l0 0q0 13.963636 13.963637 13.963637ZM875.054545 48.872727000000054h-27.927272l18.618182 74.472728h27.927272l-18.618182-74.472728zM968.145455 48.872727000000054h27.927272l-18.618182 74.472728h-27.927272l18.618182-74.472728zM921.6 328.14545499999997m-27.927273 0a27.927273 27.927273 0 1 1 55.854546 0 27.927273 27.927273 0 1 1-55.854546 0ZM1033.309091 597.2712730000001a11.450182 11.450182 0 0 1-6.516364 2.048 11.543273 11.543273 0 0 1-9.309091-5.213091L878.778182 386.141091a11.636364 11.636364 0 1 1 19.362909-12.846546l138.426182 207.872a11.636364 11.636364 0 0 1-3.258182 16.104728zM902.330182 438.272a163.188364 163.188364 0 0 1-60.788364-19.642182 14.056727 14.056727 0 0 1-4.654545-20.200727 13.963636 13.963636 0 0 1 18.618182-4.189091 136.750545 136.750545 0 0 0 25.134545 10.891636zM921.6 439.854545h-7.447273L893.672727 408.669091a139.636364 139.636364 0 0 0 27.927273 3.258182h2.048l17.780364 26.810182A174.452364 174.452364 0 0 1 921.6 439.854545zM1001.658182 418.629818a163.188364 163.188364 0 0 1-50.082909 18.059637l-17.221818-25.786182a134.609455 134.609455 0 0 0 53.713454-16.663273 13.684364 13.684364 0 0 1 18.618182 4.282182 13.963636 13.963636 0 0 1-5.026909 20.107636zM961.536 510.417455l-17.314909-25.879273a227.607273 227.607273 0 0 0 25.320727-4.002909l16.477091 24.482909a248.645818 248.645818 0 0 1-24.482909 5.399273zM933.608727 485.376l17.687273 26.437818a243.432727 243.432727 0 0 1-29.696 1.861818A249.483636 249.483636 0 0 1 791.272727 477.090909a13.963636 13.963636 0 0 1-4.375272-20.014545 13.777455 13.777455 0 0 1 18.618181-4.096A221.184 221.184 0 0 0 921.6 485.748364c4.002909 0 8.005818-0.186182 12.008727-0.372364zM1051.927273 477.090909a245.76 245.76 0 0 1-55.854546 25.134546l-16.197818-24.296728a223.418182 223.418182 0 0 0 58.461091-24.948363 13.777455 13.777455 0 0 1 18.618182 4.096A14.149818 14.149818 0 0 1 1051.927273 477.090909zM980.526545 555.845818l16.570182 24.948364a312.878545 312.878545 0 0 1-75.496727 9.309091A308.410182 308.410182 0 0 1 741.934545 532.945455a13.963636 13.963636 0 0 1-2.699636-19.735273 14.056727 14.056727 0 0 1 19.269818-2.606546 281.879273 281.879273 0 0 0 221.928728 45.242182zM1006.592 578.187636l-16.290909-24.482909c7.912727-1.954909 15.639273-4.282182 23.365818-6.981818l15.918546 24.017455c-7.540364 2.792727-14.894545 5.213091-22.993455 7.447272zM1101.265455 532.945455a311.854545 311.854545 0 0 1-62.650182 34.443636l-15.918546-23.924364a284.858182 284.858182 0 0 0 61.905455-32.954182 14.056727 14.056727 0 0 1 19.269818 2.606546 13.963636 13.963636 0 0 1-2.606545 19.828364z"  horiz-adv-x="1861" />

    
    <glyph glyph-name="hifi-empty" unicode="&#58947;" d="M512-128C229.234215-128 0 101.23421499999995 0 384S229.234215 896 512 896 1024 666.765785 1024 384 794.765785-128 512-128z m0 31.507692C777.373538-96.49230799999998 992.492308 118.62646199999995 992.492308 384S777.373538 864.492308 512 864.492308 31.507692 649.373538 31.507692 384 246.626462-96.49230799999998 512-96.49230799999998zM734.712123 8.932430999999951a15.753846 15.753846 0 1 0-15.927138 27.175384 395.736615 395.736615 0 0 1 82.140553 64.086647 15.753846 15.753846 0 1 0 22.480739-22.071139 427.449108 427.449108 0 0 0-88.694154-69.190892z m148.558769 146.0224a15.738092 15.738092 0 1 0-26.891815 16.399754A391.845415 391.845415 0 0 1 913.723077 376.12307699999997c0 75.728738-21.393723 148.259446-61.109169 210.802215a15.753846 15.753846 0 0 0 26.592492 16.888123A423.305846 423.305846 0 0 0 945.230769 376.12307699999997a423.305846 423.305846 0 0 0-61.959877-221.168246zM519.876923 250.092308a126.030769 126.030769 0 1 0 0 252.061538 126.030769 126.030769 0 0 0 0-252.061538z m0 31.507692a94.523077 94.523077 0 1 1 0 189.046154 94.523077 94.523077 0 0 1 0-189.046154z"  horiz-adv-x="1024" />

    
    <glyph glyph-name="no-listen" unicode="&#58951;" d="M256.418426 623.7374090000001L122.306039 558.324777a22.725515 22.725515 0 0 0-1.091917-0.477714L141.710307 452.408862a70.894963 70.894963 0 1 0-36.692949 34.600109l-24.135907 124.148648a14.718126 14.718126 0 0 0 7.313566 15.684928c1.103291 1.000924 2.365819 1.865358 3.776212 2.547805l158.987614 77.082491a10.634813 10.634813 0 0 0 14.92286-6.869976 9.872746 9.872746 0 0 0 0.432217-1.273902l46.679437-180.382356a70.894963 70.894963 0 1 0-40.21893 40.446413l-16.356001 65.344387z m-7.26807 29.038158l-5.106985 20.405192-132.281153-66.686534 3.651097-18.80144 131.91718 64.343463a16.492491 16.492491 0 0 0 1.819861 0.739319zM86.147674 381.77550399999996A41.629322 41.629322 0 1 1 70.258012 463.498641a41.629322 41.629322 0 0 1 15.889662-81.723137zM257.305608 453.660017a41.629322 41.629322 0 1 1-15.889662 81.723136A41.629322 41.629322 0 0 1 257.305608 453.660017zM1359.288361-29.38798399999996l78.765863 104.528271a13.967434 13.967434 0 0 0 21.519857 0.955427c1.137413-0.932679 2.149711-2.058718 2.991397-3.355369l26.695087-41.117486a14.706752 14.706752 0 0 0-24.670492-16.026152l-16.856463 25.955769-93.324751-123.841547a78.993345 78.993345 0 0 0-79.891901-45.269044 78.947848 78.947848 0 1 0 16.503865 157.042637 78.947848 78.947848 0 0 0 68.267538-58.872506z m-106.109275-57.348372a48.453801 48.453801 0 1 1 58.3038 77.389592 48.453801 48.453801 0 0 1-58.3038-77.389592zM680.15033 112.48156100000006c-150.889232 0-273.19527 122.317413-273.195271 273.19527s122.317413 273.19527 273.195271 273.195271c150.877857 0 273.19527-122.317413 273.19527-273.195271s-122.317413-273.19527-273.19527-273.19527z m0 34.122395c132.042295 0 239.072875 107.041954 239.072875 239.072875s-107.041954 239.072875-239.072875 239.072875-239.084249-107.03058-239.08425-239.072875 107.041954-239.072875 239.08425-239.072875zM672.825389 391.284278v85.738205a16.924708 16.924708 0 1 0 33.849416 0v-102.662913c0-9.349536-7.575172-16.924708-16.924708-16.924708h-63.513152a16.924708 16.924708 0 1 0 0 33.849416h46.588444zM688.46482 583.086262m-16.924708 0a16.924708 16.924708 0 1 1 33.849416 0 16.924708 16.924708 0 1 1-33.849416 0ZM688.46482 199.47092099999998m-16.924708 0a16.924708 16.924708 0 1 1 33.849416 0 16.924708 16.924708 0 1 1-33.849416 0ZM874.636608 374.35956999999996m-16.924708 0a16.924708 16.924708 0 1 1 33.849416 0 16.924708 16.924708 0 1 1-33.849416 0ZM479.738128 374.35956999999996m-16.924708 0a16.924708 16.924708 0 1 1 33.849416 0 16.924708 16.924708 0 1 1-33.849416 0ZM688.13497 656.654146l-34.111021 0.636951 2.354445 126.969433c1.103291 59.668695 50.364655 107.144321 110.033351 106.029656a108.122496 108.122496 0 0 0 63.72926-22.27055L1366.727044 456.765155c47.361885-36.306229 56.336074-104.130176 20.029846-151.492061a107.94051 107.94051 0 0 0-24.624996-23.362466l-534.424953-366.679259c-49.204494-33.758423-116.471109-21.246878-150.229532 27.96899a108.054251 108.054251 0 0 0-18.949304 60.385265V116.87197600000002h34.122395v-113.058869a73.94323 73.94323 0 0 1 115.754539-60.453511l534.424954 366.679259a73.931856 73.931856 0 0 1 3.150634 119.644492l-536.586038 411.254481a73.931856 73.931856 0 0 1-118.8938-57.31425l-2.365819-126.969432z"  horiz-adv-x="1501" />

    
    <glyph glyph-name="no-like" unicode="&#58952;" d="M1772.736753 428.983718L1630.689882 359.70108200000004a24.070024 24.070024 0 0 0-1.156517-0.505976l21.7088-111.688282a75.089318 75.089318 0 1 0-38.863812 36.647152l-25.563859 131.493648a15.588894 15.588894 0 0 0 7.746259 16.612894c1.168565 1.060141 2.505788 1.975718 3.999623 2.698541l168.393789 81.642917a11.264 11.264 0 0 0 15.805741-7.276423 10.456847 10.456847 0 0 0 0.457788-1.349271l49.44113-191.054306a75.089318 75.089318 0 1 0-42.5984 42.839342l-17.323671 69.2224z m-7.710118 30.756141l-5.409129 21.612423-140.107294-70.631906 3.867106-19.913788 139.721788 68.150212a17.468235 17.468235 0 0 0 1.927529 0.783059zM1592.380235 172.69458799999995a44.092235 44.092235 0 1 1-16.829741 86.558118 44.092235 44.092235 0 0 1 16.829741-86.558118z m181.284141 76.149459a44.092235 44.092235 0 1 1-16.829741 86.558118 44.092235 44.092235 0 0 1 16.829741-86.558118zM171.959718 102.33976500000006l71.402917 118.832188a14.793788 14.793788 0 0 0 22.576189 3.385223c1.301082-0.855341 2.493741-1.927529 3.517741-3.204517l32.671623-40.357647a15.588894 15.588894 0 0 0-24.214588-19.612612l-20.624565 25.479529-84.594447-140.781929a83.630682 83.630682 0 1 0-0.73487 56.259765z m-105.423812-72.161883a51.296376 51.296376 0 1 1 52.8384 87.94353 51.296376 51.296376 0 0 1-52.8384-87.94353zM647.649882 20.672752999999943l216.292894 222.810353c46.188424 46.658259 46.188424 122.386071 0 169.044329a117.097412 117.097412 0 0 1-166.839717 0L645.842824 360.74917600000003l-12.842165 12.709648-38.406024 38.020517c-46.658259 46.188424-122.386071 46.188424-169.044329 0a117.097412 117.097412 0 0 1 0-166.839717l170.586353-168.899765 51.513223-55.067106z m23.768847 417.286023a153.238588 153.238588 0 0 0 218.208377 0c60.126871-60.741271 60.126871-159.153694 0.12047-219.762447l-220.581647-227.219576a30.117647 30.117647 0 0 0-42.586353-0.626447c-0.349365 0.337318-19.130729 20.407718-56.356141 60.2112L400.131012 218.95529399999998a153.238588 153.238588 0 0 0 0 218.208377c60.741271 60.126871 159.153694 60.126871 219.894964 0l25.563859-25.298824 25.828894 26.093929zM885.109459-8.107670999999982l57.560847-60.608753L1394.772329 399.902118c101.833788 102.869835 101.833788 269.733647 0 372.603482a258.590118 258.590118 0 0 1-368.362917 0l-91.62993-92.557553-91.449223 90.5216c-102.869835 101.833788-269.733647 101.833788-372.603483 0-84.510118-83.666824-100.568847-211.907765-43.116423-312.332047 60.584659 39.574588 142.516706 32.587294 195.415341-19.781271l25.563859-25.298823 25.840941 26.105976a153.238588 153.238588 0 0 0 218.208377 0c60.126871-60.741271 60.126871-159.153694 0-219.894964l-117.410636-118.603294 109.881224-108.772895zM661.455812 400.335812l-25.551812-0.132518 12.709647 12.842165 12.842165-12.709647z m-261.927153 34.297976c-69.342871 115.278306-52.031247 264.661835 45.802917 361.520188 116.952847 115.772235 306.501271 115.772235 423.454118 0l65.764894-65.102305 66.198588 66.873223c115.868612 117.061271 303.838871 117.061271 419.731577 0 115.772235-116.952847 115.772235-306.501271 0.156612-423.285459l-478.159812-495.628047-12.998777 13.685459-70.174117 73.896659-109.471624 108.363294 142.841977 144.287624c60.126871 60.741271 60.126871 159.153694 0 219.894964a153.238588 153.238588 0 0 1-218.208377 0l-25.840941-26.105976-25.563859 25.298823c-60.741271 60.126871-159.153694 60.126871-219.894964 0-1.240847-1.204706-2.445553-2.445553-3.638212-3.698447z"  horiz-adv-x="1843" />

    
    <glyph glyph-name="no-info" unicode="&#58954;" d="M449.450667 559.616l-159.829334 5.571048a14.421333 14.421333 0 0 0-1.267809 0.097523L254.683429 455.192381a75.983238 75.983238 0 1 0-17.310477 51.2l39.631238 129.621333c2.048 6.704762 8.167619 11.044571 14.811429 11.154286 1.54819 0.402286 3.181714 0.585143 4.85181 0.512l189.232761-7.046095a11.398095 11.398095 0 0 0 10.678858-14.006857 9.654857 9.654857 0 0 0-0.231619-1.426286l-46.592-194.182095a75.983238 75.983238 0 1 0-17.700572 58.502095l17.39581 70.095238z m7.728762 31.134476l5.436952 21.881905-158.732191 3.449905-5.997714-19.626667 157.208381-5.485714c0.694857-0.036571 1.401905-0.109714 2.084572-0.219429zM166.558476 416.304762a44.604952 44.604952 0 1 1 26.087619 85.308952 44.604952 44.604952 0 0 1-26.087619-85.308952z m198.144-18.078476a44.604952 44.604952 0 1 1 26.087619 85.308952 44.604952 44.604952 0 0 1-26.087619-85.308952zM867.132952 126.54933300000005h549.888a48.761905 48.761905 0 0 1 48.761905 48.761905v515.864381a48.761905 48.761905 0 0 1-48.761905 48.761905h-743.960381a48.761905 48.761905 0 0 1-48.761904-48.761905v-515.864381a48.761905 48.761905 0 0 1 48.761904-48.761905h39.570286v-76.860952a24.380952 24.380952 0 0 1 40.009143-18.712381l114.492952 95.573333z m-91.050666-123.648a60.952381 60.952381 0 0 0-100.010667 46.787048v40.289524h-2.998857a85.333333 85.333333 0 0 0-85.333333 85.333333v515.864381a85.333333 85.333333 0 0 0 85.333333 85.333333h743.960381a85.333333 85.333333 0 0 0 85.333333-85.333333v-515.864381a85.333333 85.333333 0 0 0-85.333333-85.333333H880.39619l-104.313904-87.076572zM846.153143 419.608381m-48.761905 0a48.761905 48.761905 0 1 1 97.52381 0 48.761905 48.761905 0 1 1-97.52381 0ZM1047.296 419.608381m-48.761905 0a48.761905 48.761905 0 1 1 97.52381 0 48.761905 48.761905 0 1 1-97.52381 0ZM1248.438857 419.608381m-48.761905 0a48.761905 48.761905 0 1 1 97.52381 0 48.761905 48.761905 0 1 1-97.52381 0ZM1719.600762 231.10704799999996l84.419048 112.030476a14.969905 14.969905 0 0 0 23.076571 1.024c1.219048-0.999619 2.304-2.206476 3.206095-3.596191l28.611048-44.068571a15.762286 15.762286 0 0 0-26.441143-17.176381l-18.066286 27.818667-100.022857-132.729905a84.662857 84.662857 0 0 0-85.625905-48.518095 84.614095 84.614095 0 1 0 17.688381 168.313904 84.589714 84.589714 0 0 0 73.155048-63.097904z m-113.724952-61.464381a51.931429 51.931429 0 1 1 62.48838 82.944 51.931429 51.931429 0 0 1-62.48838-82.944z"  horiz-adv-x="1926" />

    
    <glyph glyph-name="no-music" unicode="&#58955;" d="M581.482427 856.777348a92.044944 92.044944 0 0 1-92.044944-92.044944V1.7833709999999883a92.044944 92.044944 0 0 1 92.044944-92.044944h762.949034a92.044944 92.044944 0 0 1 92.044943 92.044944V764.732404a92.044944 92.044944 0 0 1-92.044943 92.044944H581.482427z m0 34.516854h762.949034c69.896629 0 126.561798-56.665169 126.561797-126.561798V1.7833709999999883c0-69.896629-56.665169-126.561798-126.561797-126.561798H581.482427c-69.896629 0-126.561798 56.665169-126.561798 126.561798V764.732404c0 69.896629 56.665169 126.561798 126.561798 126.561798zM878.108764 96.451596c158.397843 0 286.800539 128.402697 286.800539 286.800539S1036.506607 670.052674 878.108764 670.052674s-286.800539-128.402697-286.800539-286.800539 128.402697-286.800539 286.800539-286.800539z m0-34.516854c-177.462652 0-321.317393 143.854742-321.317393 321.317393S700.646112 704.569528 878.108764 704.569528s321.317393-143.854742 321.317393-321.317393S1055.55991 61.93474200000003 878.108764 61.93474200000003zM878.108764 217.22606699999994c-91.699775 0-166.026067 74.337798-166.026067 166.026068s74.337798 166.026067 166.026067 166.026067 166.026067-74.337798 166.026067-166.026067-74.337798-166.026067-166.026067-166.026068z m0 34.516854c72.634966 0 131.509213 58.885753 131.509214 131.509214s-58.885753 131.509213-131.509214 131.509213-131.509213-58.885753-131.509213-131.509213 58.874247-131.509213 131.509213-131.509214zM878.108764 383.25213499999995m-19.835685 0a19.835685 19.835685 0 1 1 39.67137 0 19.835685 19.835685 0 1 1-39.67137 0ZM1308.464899 680.568809m-19.835686 0a19.835685 19.835685 0 1 1 39.671371 0 19.835685 19.835685 0 1 1-39.671371 0ZM1305.88764 619.8651689999999a17.258427 17.258427 0 0 0 17.258427-17.258427v-494.741573a17.258427 17.258427 0 0 0-34.516854 0v494.741573a17.258427 17.258427 0 0 0 17.258427 17.258427zM1248.279011 101.38750600000003l40.637843 21.60755a23.011236 23.011236 0 0 0 21.60755-40.637843l-40.637842-21.60755a23.011236 23.011236 0 0 0-21.607551 40.637843zM1305.88764 596.853933c-47.587236 0-86.292135 38.704899-86.292134 86.292134s38.704899 86.292135 86.292134 86.292135 86.292135-38.704899 86.292135-86.292135-38.704899-86.292135-86.292135-86.292134z m0 138.067415c-28.545438 0-51.775281-23.229843-51.77528-51.775281s23.229843-51.775281 51.77528-51.77528 51.775281 23.229843 51.775281 51.77528-23.229843 51.775281-51.775281 51.775281zM255.010517 682.478742l-135.662742-66.168809a22.988225 22.988225 0 0 0-1.104539-0.483236l20.733124-106.668585a71.714517 71.714517 0 1 0-37.117124 35.00009L77.444315 669.730517a14.88827 14.88827 0 0 0 7.398112 15.866247c1.116045 1.012494 2.393169 1.886921 3.819865 2.577258l160.825528 77.973574a10.757753 10.757753 0 0 0 15.095371-6.949394 9.986876 9.986876 0 0 0 0.437213-1.288629l47.219057-182.467595a71.714517 71.714517 0 1 0-40.683865 40.913977l-16.545079 66.122787z m-7.35209 29.362337l-5.166023 20.641078-133.810337-67.457438 3.693304-19.018786 133.442157 65.08728c0.598292 0.299146 1.20809 0.540764 1.840899 0.747866zM82.75991 437.708225a42.110562 42.110562 0 1 1-16.073348 82.667865 42.110562 42.110562 0 0 1 16.073348-82.667865z m173.136539 72.727011a42.110562 42.110562 0 1 1-16.073348 82.667865 42.110562 42.110562 0 0 1 16.073348-82.667865zM1682.236404 368.15676399999995l68.193798 113.491416a14.128899 14.128899 0 0 0 21.561528 3.233078c1.242607-0.816899 2.381663-1.840899 3.359641-3.060494l31.203236-38.54382a14.88827 14.88827 0 0 0-23.126292-18.731146l-19.697618 24.334382-80.79245-134.454652a79.872 79.872 0 1 0-0.701843 53.731236z m-100.685662-68.918652a48.990921 48.990921 0 1 1 50.46364 83.991012 48.990921 48.990921 0 0 1-50.46364-83.991012z"  horiz-adv-x="1817" />

    
    <glyph glyph-name="resets" unicode="&#58957;" d="M870.4 588.8l160.3584-143.4112-221.696-59.392zM512 819.2a25.6 25.6 0 0 0 0-51.2 384 384 0 1 1 371.5072-286.4128 25.6 25.6 0 1 0 49.5104 12.9536A435.2 435.2 0 1 0 512 819.2z"  horiz-adv-x="1030" />

    
    <glyph glyph-name="signin" unicode="&#58959;" d="M835.584-14.222221999999988H188.416A74.752 74.752 0 0 0 113.777778 60.416000000000054V707.5840000000001C113.777778 748.714667 147.285333 782.222222 188.416 782.222222h450.389333v-56.888889H188.416A17.749333 17.749333 0 0 1 170.666667 707.5840000000001v-647.111111c0-9.784889 7.964444-17.806222 17.749333-17.806222h647.111111a17.863111 17.863111 0 0 1 17.806222 17.749333V354.702222h56.888889v-294.286222c0-41.130667-33.507556-74.638222-74.638222-74.638222zM639.260444 753.777778m-28.444444 0a28.444444 28.444444 0 1 1 56.888889 0 28.444444 28.444444 0 1 1-56.888889 0ZM881.777778 355.555556m-28.444445 0a28.444444 28.444444 0 1 1 56.888889 0 28.444444 28.444444 0 1 1-56.888889 0ZM448.853333 257.36533299999996l416.256 409.429334a28.444444 28.444444 0 0 0 40.049778-0.170667l0.170667-0.170667 0.170666-0.170666a28.216889 28.216889 0 0 0-0.341333-39.879111l-431.047111-423.992889a28.330667 28.330667 0 0 0-4.380444-3.527111 17.464889 17.464889 0 0 0-1.422223-1.479112l-0.113777-0.113777a28.216889 28.216889 0 0 0-39.936 0l-0.113778 0.113777-180.736 183.182223a28.444444 28.444444 0 0 0 0.113778 40.049777l0.113777 0.113778a28.216889 28.216889 0 0 0 39.936 0l0.113778-0.113778 161.166222-163.271111z"  horiz-adv-x="1024" />

    
    <glyph glyph-name="help" unicode="&#58960;" d="M512 127.31733299999996a28.444444 28.444444 0 1 1 0 56.888889 28.444444 28.444444 0 0 1 0-56.888889zM587.548444 377.856C629.930667 399.36 682.666667 426.154667 682.666667 498.801778c0 82.716444-70.826667 140.515556-172.316445 140.515555-73.841778 0-138.865778-42.609778-161.848889-106.040889-5.290667-14.620444-7.964444-39.424-3.470222-59.790222 2.730667-12.288 17.009778-20.195556 29.184-17.464889a27.704889 27.704889 0 0 1 22.129778 27.534223c0 8.590222-1.649778 15.246222 2.104889 34.133333 7.964444 39.992889 48.526222 64.284444 111.900444 64.284444 74.752 0 115.712-27.306667 115.712-83.171555 0-42.382222-17.294222-52.906667-56.888889-73.500445-37.774222-19.683556-84.935111-49.948444-84.935111-109.169777v-56.490667c0-12.629333 15.246222-24.689778 27.761778-24.689778 12.515556 0 25.713778 12.117333 25.713778 24.689778v56.490667c0 29.696 11.377778 42.154667 49.834666 61.724444zM512-71.11111100000005c-250.936889 0-455.111111 204.174222-455.111111 455.111111s204.174222 455.111111 455.111111 455.111111 455.111111-204.174222 455.111111-455.111111a455.338667 455.338667 0 0 0-59.733333-225.564444l-49.436445 28.216888A397.767111 397.767111 0 0 1 910.222222 384c0 219.591111-178.688 398.222222-398.222222 398.222222-219.591111 0-398.222222-178.631111-398.222222-398.222222 0-219.534222 178.631111-398.222222 398.222222-398.222222 90.282667 0 177.550222 29.866667 245.703111 84.195555l35.441778-44.544C714.922667-36.80711099999996 615.082667-71.11111100000005 512-71.11111100000005zM777.102222 21.27644399999997a28.444444 28.444444 0 1 1 0 56.888889 28.444444 28.444444 0 0 1 0-56.888889zM881.777778 142.56355599999995a28.444444 28.444444 0 1 1 0 56.888888 28.444444 28.444444 0 0 1 0-56.888888z"  horiz-adv-x="1024" />

    
    <glyph glyph-name="contributor" unicode="&#58961;" d="M528.165072 835.45254a28.34018 28.34018 0 0 1-28.169798 0l-366.320967-209.456082a28.396974 28.396974 0 0 1-14.312075-24.648573v-417.549109a28.396974 28.396974 0 0 1 14.312075-24.648573l366.320967-209.456082a28.34018 28.34018 0 0 1 28.169798 0l366.320967 209.456082A28.34018 28.34018 0 0 1 908.798114 183.79877599999998V601.347885a28.396974 28.396974 0 0 1-14.312075 24.648573l-366.320967 209.456082z m28.226593 49.297147l366.320966-209.456082A85.190923 85.190923 0 0 0 965.592062 601.347885v-417.549109a85.190923 85.190923 0 0 0-42.879431-73.94572L556.391665-99.603026a85.134129 85.134129 0 0 0-84.56619 0l-366.320966 209.456082A85.020541 85.020541 0 0 0 62.568284 183.79877599999998V601.347885a85.190923 85.190923 0 0 0 42.879431 73.94572L471.768682 884.749687a85.190923 85.190923 0 0 0 84.622983 0zM430.195511 270.63672299999996l11.756348-55.601275c-106.318271-16.981391-184.125981-71.673963-184.125981-136.532652 0-5.565807 0.567939-11.07482 1.703819-16.470245l-63.268459 38.733473c14.652839 82.124049 109.214763 149.140908 233.934273 169.870699z m162.657868 0.113588c124.719511-20.502615 219.50861-87.349093 234.559007-169.30276l-62.927695-38.563091c1.022291 5.111455 1.533437 10.336499 1.533437 15.618336 0 65.085865-78.318855 119.892025-185.148272 136.703034l11.983523 55.544481z m-133.408984-331.222306a450.37601 450.37601 0 0 1 103.364986-0.170382l-51.512111-31.577436-51.852875 31.747818zM408.670605 309.483784l23.73987 51.568905c20.900173-9.654971 42.538667-36.802479 50.603408-63.325252 11.756347-38.733473-5.338631-73.718545-49.808292-84.679777l-13.630548 55.146924c11.188408 2.782903 11.813141 4.03237 9.087032 13.062608-3.578019 11.756347-14.766427 25.784453-19.99147 28.226592zM606.597515 307.723172l-23.739871 51.568905c-21.184143-9.768559-42.027522-36.916066-49.126765-63.609222-10.109323-38.165533 8.064741-72.07152 51.852875-82.919165l13.630548 55.146924c-11.869935 2.953285-12.835432 4.713898-10.563675 13.289784 2.896491 11.07482 13.062608 24.30781 17.946888 26.522774zM425.595202 296.47797C374.935 330.89510299999995 340.858631 395.01547 340.858631 468.336458 340.858631 578.11916 417.132903 667.115277 511.240476 667.115277s170.381845-88.996117 170.381845-198.778819c0-73.150605-33.849193-137.043797-84.28222-171.574518l-19.253148 56.737154C606.427133 379.34034099999997 624.828372 421.140686 624.828372 468.336458 624.828372 546.7689 573.997789 610.321328 511.240476 610.321328S397.652579 546.7689 397.652579 468.336458c0-47.252565 18.458033-89.109705 46.911801-114.950952l-18.969178-56.907536z"  horiz-adv-x="1024" />

    
    <glyph glyph-name="upload" unicode="&#58962;" d="M540.444444 156.44444399999998a28.444444 28.444444 0 0 0-28.444444 28.444445v568.888889a28.444444 28.444444 0 0 0 56.888889 0v-568.888889a28.444444 28.444444 0 0 0-28.444445-28.444445zM258.844444 443.733333a28.558222 28.558222 0 0 0-28.444444 28.444445c0 7.281778 2.787556 14.563556 8.305778 20.138666l281.6 281.6a28.444444 28.444444 0 0 0 40.277333-40.277333l-281.6-281.6a28.558222 28.558222 0 0 0-20.138667-8.305778zM824.888889 443.733333a28.558222 28.558222 0 0 0-20.138667 8.305778l-281.6 281.6a28.558222 28.558222 0 0 0 0 40.277333 28.444444 28.444444 0 0 0 40.220445 0l281.6-281.6a28.444444 28.444444 0 0 0-20.081778-48.583111zM142.222222-14.222221999999988a28.444444 28.444444 0 0 0-28.444444 28.444444v113.777778a28.444444 28.444444 0 0 0 56.888889 0v-113.777778a28.444444 28.444444 0 0 0-28.444445-28.444444M938.666667-14.222221999999988a28.444444 28.444444 0 0 0-28.444445 28.444444v113.777778a28.444444 28.444444 0 0 0 56.888889 0v-113.777778a28.444444 28.444444 0 0 0-28.444444-28.444444M938.666667-15.985777999999982h-796.444445a28.444444 28.444444 0 0 0 0 56.888889h796.444445a28.444444 28.444444 0 0 0 0-56.888889z"  horiz-adv-x="1024" />

    
    <glyph glyph-name="current-play" unicode="&#58963;" d="M512-93.866667c263.918933 0 477.866667 213.947733 477.866667 477.866667S775.918933 861.866667 512 861.866667 34.133333 647.918933 34.133333 384s213.947733-477.866667 477.866667-477.866667z m0-34.133333C229.239467-128 0 101.23946699999999 0 384S229.239467 896 512 896 1024 666.760533 1024 384s-229.239467-512-512-512zM924.842667 492.100267a17.066667 17.066667 0 1 0-33.006934-8.635734 393.250133 393.250133 0 0 1-280.1664 280.302934 17.066667 17.066667 0 1 0 8.635734 33.006933 427.349333 427.349333 0 0 0 304.5376-304.674133zM512 281.6a102.4 102.4 0 1 1 0 204.8 102.4 102.4 0 0 1 0-204.8z m0-34.133333a136.533333 136.533333 0 1 0 0 273.066666 136.533333 136.533333 0 0 0 0-273.066666z"  horiz-adv-x="1024" />

    
    <glyph glyph-name="edit" unicode="&#58964;" d="M695.00824 895.145673L95.883366 895.145673C42.972118 895.145673 0 852.173555 0 799.262307l0-831.305859C0-85.02788199999998 42.972118-128 95.883366-128l831.30586 0c52.98433 0 95.956448 42.972118 95.956447 95.883366L1023.145673 273.95008600000006l-73.081833 0 0-306.06672c0-12.570075-10.231457-22.80153199-22.80153299-22.801532L95.883366-54.91816600000004A22.801532 22.801532 0 0 0 73.081834-32.116633999999976L73.081834 799.26230701C73.081834 811.8323830100001 83.313291 822.06384 95.883366 822.06384L695.00824 822.06384 695.00824 895.145673zM694.27742101 858.604756m-36.54091701 1e-8a36.540917 36.540917 0 1 1 73.081834-1e-8 36.540917 36.540917 0 1 1-73.081834 1e-8ZM986.604756 270.80756699999995m-36.833244 0a36.833244 36.833244 0 1 1 73.666489 0 36.833244 36.833244 0 1 1-73.666489 0ZM722.77933599 470.394055a36.394753 36.394753 0 1 0-57.00382999 45.603065l292.327335 365.409169a36.540917 36.540917 0 1 0 57.076912-45.676147L722.77933599 470.394055zM255.786418 529.736504a36.540917 36.540917 0 0 0 0 73.081834l219.245502 0a36.540917 36.540917 0 0 0 0-73.081834l-219.245502 0zM255.78641801 237.40916900000002a36.540917 36.540917 0 0 0-1e-8 73.081834l511.572837 0a36.540917 36.540917 0 0 0 0-73.081834l-511.57283699 0z"  horiz-adv-x="1024" />

    
    <glyph glyph-name="stop" unicode="&#58965;" d="M130.474667 860.842667m119.210666 0l0 0q119.210667 0 119.210667-119.210667l0-715.264q0-119.210667-119.210667-119.210667l0 0q-119.210667 0-119.210666 119.210667l0 715.264q0 119.210667 119.210666 119.210667ZM655.018667 860.842667m119.210666 0l0 0q119.210667 0 119.210667-119.210667l0-715.264q0-119.210667-119.210667-119.210667l0 0q-119.210667 0-119.210666 119.210667l0 715.264q0 119.210667 119.210666 119.210667Z"  horiz-adv-x="1024" />

    
    <glyph glyph-name="start" unicode="&#58966;" d="M897.969231 291.84000000000003l-633.777231-393.452308a88.064 88.064 0 0 0-134.459077 74.83077v786.904615A88.064 88.064 0 0 0 264.192 834.796308l633.856-393.452308a88.064 88.064 0 0 0 0-149.661538z"  horiz-adv-x="1024" />

    
    <glyph glyph-name="user" unicode="&#58967;" d="M512 440.888889a170.666667 170.666667 0 1 1 0 341.333333 170.666667 170.666667 0 0 1 0-341.333333z m0-56.888889a227.555556 227.555556 0 1 0 0 455.111111 227.555556 227.555556 0 0 0 0-455.111111zM878.421333 167.08266700000001a28.444444 28.444444 0 1 0-50.232889-26.794667C776.305778 237.62488900000005 686.023111 298.66666699999996 512 298.66666699999996A369.777778 369.777778 0 0 1 142.222222-71.11111100000005a28.444444 28.444444 0 0 0-56.888889 0A426.666667 426.666667 0 0 0 512 355.555556c196.323556 0 305.095111-73.557333 366.421333-188.472889zM690.972444-5.916443999999956a28.444444 28.444444 0 0 0 40.220445 40.220444l113.777778-113.777778a28.444444 28.444444 0 0 0-40.220445-40.220444l-113.777778 113.777778zM845.027556-119.69422199999997a28.444444 28.444444 0 0 0-40.220445 40.220444l170.666667 170.666667a28.444444 28.444444 0 0 0 40.220444-40.220445l-170.666666-170.666666z"  horiz-adv-x="1024" />

    
    <glyph glyph-name="password" unicode="&#58968;" d="M136.533333 486.4v-546.133333h750.933334V486.4H136.533333z m0 68.266667h750.933334a68.266667 68.266667 0 0 0 68.266666-68.266667v-546.133333a68.266667 68.266667 0 0 0-68.266666-68.266667H136.533333a68.266667 68.266667 0 0 0-68.266666 68.266667V486.4a68.266667 68.266667 0 0 0 68.266666 68.266667zM409.6 827.733333a136.533333 136.533333 0 0 1-136.533333-136.533333v-136.533333h477.866666V691.2a136.533333 136.533333 0 0 1-136.533333 136.533333H409.6z m0 68.266667h204.8a204.8 204.8 0 0 0 204.8-204.8v-136.533333a68.266667 68.266667 0 0 0-68.266667-68.266667H273.066667a68.266667 68.266667 0 0 0-68.266667 68.266667V691.2a204.8 204.8 0 0 0 204.8 204.8zM477.866667 315.733333a34.133333 34.133333 0 0 0 68.266666 0v-204.8a34.133333 34.133333 0 0 0-68.266666 0v204.8z"  horiz-adv-x="1024" />

    
    <glyph glyph-name="outlogin" unicode="&#58969;" d="M274.49632 795.776a32 32 0 0 0 31.808-55.488A418.56 418.56 0 0 1 96.00032 376.576c0-231.04 186.304-418.24 416-418.24s416 187.2 416 418.24a418.432 418.432 0 0 1-202.496 359.04 31.936 31.936 0 1 0 33.024 54.784A482.176 482.176 0 0 0 992.00032 376.576c0-266.304-214.848-482.24-480-482.24S32.00032 110.33600000000001 32.00032 376.576a482.432 482.432 0 0 0 242.496 419.2zM512.00032 896a32 32 0 0 0 32-32v-384a32 32 0 0 0-64 0v384a32 32 0 0 0 32 32z"  horiz-adv-x="1024" />

    
    <glyph glyph-name="list" unicode="&#58970;" d="M739.555556 696.8888890000001a28.444444 28.444444 0 0 0 56.888888 0v-512a28.444444 28.444444 0 0 0-56.888888 0v512zM768 668.444444a28.444444 28.444444 0 0 0 0 56.888889h113.777778a28.444444 28.444444 0 0 0 0-56.888889h-113.777778zM625.777778 42.66666699999996a113.777778 113.777778 0 1 1 0.056889 227.498666A113.777778 113.777778 0 0 1 625.777778 42.66666699999996z m0-56.888889a170.666667 170.666667 0 1 0 0 341.333333 170.666667 170.666667 0 0 0 0-341.333333zM142.222222 668.444444a28.444444 28.444444 0 0 0 0 56.888889h455.111111a28.444444 28.444444 0 0 0 0-56.888889h-455.111111zM142.222222 384a28.444444 28.444444 0 0 0 0 56.888889h284.444445a28.444444 28.444444 0 0 0 0-56.888889h-284.444445zM142.222222 99.55555600000002a28.444444 28.444444 0 0 0 0 56.888888h170.666667a28.444444 28.444444 0 0 0 0-56.888888h-170.666667z"  horiz-adv-x="1024" />

    
    <glyph glyph-name="send" unicode="&#58891;" d="M460.8 387.584L610.304 537.6c10.752 10.752 27.648 10.752 38.4 0 10.752-10.752 10.752-27.648 0-38.4L497.664 348.15999999999997l113.664-279.04 249.856 681.472-680.96-249.344L460.8 387.584zM107.52 472.064c-16.896 6.656-24.576 25.6-17.92 42.496 3.584 8.704 10.24 15.36 18.944 18.432L875.52 813.568c19.968 7.168 41.472-3.072 48.64-22.528 3.072-8.704 3.072-17.92 0-26.112l-281.088-766.976c-6.144-16.896-25.088-25.6-41.984-19.456-8.704 3.072-15.36 9.728-18.944 18.432l-138.24 338.944L107.52 472.064z"  horiz-adv-x="1079" />

    
    <glyph glyph-name="tuichudenglu" unicode="&#58972;" d="M275.592533 789.0944a34.133333 34.133333 0 1 0 33.792-59.323733 409.6 409.6 0 1 1 412.8768-4.5056 34.2016 34.2016 0 0 0 35.089067 58.641066 477.866667 477.866667 0 1 0-481.757867 5.188267zM512 896a34.133333 34.133333 0 0 0 34.133333-34.133333v-409.6a34.133333 34.133333 0 0 0-68.266666 0v409.6a34.133333 34.133333 0 0 0 34.133333 34.133333z"  horiz-adv-x="1024" />

    
    <glyph glyph-name="userInfo" unicode="&#58973;" d="M512-99.55555600000002a455.111111 455.111111 0 1 0 0 910.222223 455.111111 455.111111 0 0 0 0-910.222223z m0 56.888889a398.222222 398.222222 0 1 1 0 796.444445 398.222222 398.222222 0 0 1 0-796.444445zM430.819556 214.414222l11.776-55.694222c-105.073778-16.782222-182.328889-70.371556-184.376889-134.200889l-60.472889 25.827556c18.147556 79.473778 111.274667 143.815111 233.073778 164.067555z m162.929777 0.113778c121.969778-20.024889 215.267556-84.252444 233.756445-163.669333l-60.359111-25.770667c-2.446222 63.772444-80.099556 117.248-185.400889 133.802667l12.003555 55.637333zM409.258667 253.32622200000003l23.779555 51.655111c20.935111-9.671111 42.609778-36.864 50.688-63.431111 11.776-38.798222-5.347556-73.841778-49.891555-84.821333l-13.653334 55.239111c11.207111 2.787556 11.832889 4.039111 9.102223 13.084444-3.584 11.776-14.791111 25.827556-20.024889 28.273778zM607.516444 251.56266700000003l-23.779555 51.655111c-21.219556-9.784889-42.097778-36.977778-49.208889-63.715556-10.126222-38.286222 8.078222-72.248889 51.939556-83.114666l13.653333 55.239111c-11.889778 2.958222-12.856889 4.721778-10.581333 13.312 2.901333 11.150222 13.084444 24.405333 17.976888 26.624zM426.211556 240.29866700000002C375.466667 274.773333 341.333333 339.00088900000003 341.333333 412.444444 341.333333 522.410667 417.735111 611.555556 512 611.555556s170.666667-89.144889 170.666667-199.111112c0-73.272889-33.905778-137.272889-84.423111-171.861333l-19.285334 56.832c28.387556 25.884444 46.819556 67.754667 46.819556 115.029333C625.777778 491.008 574.862222 554.666667 512 554.666667S398.222222 491.008 398.222222 412.444444c0-47.331556 18.488889-89.258667 46.990222-115.143111l-19.000888-57.002666z"  horiz-adv-x="1024" />

    
    <glyph glyph-name="member" unicode="&#58974;" d="M330.808889 738.872889a28.558222 28.558222 0 0 1-20.821333-9.045333L112.924444 518.712889a28.501333 28.501333 0 0 1-0.512-38.229333l377.969778-427.463112a28.444444 28.444444 0 0 1 42.609778 0l378.026667 426.951112a28.444444 28.444444 0 0 1-0.739556 38.570666l-202.922667 211.626667a28.558222 28.558222 0 0 1-20.536888 8.760889H330.808889z m0 56.888889h356.067555c23.267556 0 45.511111-9.500444 61.610667-26.282667l202.922667-211.626667a85.333333 85.333333 0 0 0 2.275555-115.655111l-378.026666-426.951111a85.333333 85.333333 0 0 0-127.772445 0L69.802667 442.823111a85.333333 85.333333 0 0 0 1.536 114.744889l197.063111 211.114667a85.333333 85.333333 0 0 0 62.407111 27.079111zM291.271111 469.333333h-25.827555a28.444444 28.444444 0 0 0 0 56.888889h54.840888l192.796445-265.955555L725.902222 526.222222h48.071111a28.444444 28.444444 0 0 0 0-56.888889h-20.764444l-242.346667-302.933333L291.271111 469.333333z"  horiz-adv-x="1024" />

    
    <glyph glyph-name="bianjixinxi" unicode="&#58975;" d="M661.065143 164.57142899999997H262.729143s-31.597714 0-31.597714 36.352 31.597714 36.352 31.597714 36.352h398.409143s41.106286 0 41.106285-36.352-41.179429-36.352-41.179428-36.352zM626.614857 436.662857a42.422857 42.422857 0 0 0-59.830857 1.389714 42.422857 42.422857 0 0 0-1.389714 59.904l385.682285 386.340572a42.203429 42.203429 0 0 0 59.757715-1.389714 42.422857 42.422857 0 0 0 1.389714-59.904L626.614857 436.662857zM256 457.142857a36.571429 36.571429 0 0 0 0 73.142857h146.285714a36.571429 36.571429 0 0 0 0-73.142857h-146.285714zM695.515429 896v-73.142857H73.142857v-877.714286h804.571429V493.714286h73.142857V-54.85714299999995a73.142857 73.142857 0 0 0-73.142857-73.142857H73.142857a73.142857 73.142857 0 0 0-73.142857 73.142857V822.857143a73.142857 73.142857 0 0 0 73.142857 73.142857h622.372572zM695.515429 896H73.142857a73.142857 73.142857 0 0 1-73.142857-73.142857v-877.714286a73.142857 73.142857 0 0 1 73.142857-73.142857h804.571429a73.142857 73.142857 0 0 1 73.142857 73.142857V493.714286h-73.142857V-54.85714299999995H73.142857V822.857143h622.372572V896zM914.285714 493.714286m-36.790857 0a36.790857 36.790857 0 1 1 73.581714 0 36.790857 36.790857 0 1 1-73.581714 0ZM694.857143 859.428571m-36.571429 0a36.571429 36.571429 0 1 1 73.142857 0 36.571429 36.571429 0 1 1-73.142857 0Z"  horiz-adv-x="1024" />

    
    <glyph glyph-name="cart" unicode="&#58936;" d="M192 742.4H104.96c-15.36 0-25.6 10.24-25.6 25.6s10.24 25.6 25.6 25.6h107.52c10.24 0 20.48-10.24 25.6-20.48l25.6-112.64h660.48c15.36 0 30.72-15.36 25.6-30.72l-102.4-424.96c-10.24-35.84-40.96-61.44-76.8-61.44H391.68c-35.84 0-66.56 25.6-76.8 61.44L192 742.4z m81.92-133.12l92.16-394.24c5.12-10.24 15.36-20.48 25.6-20.48h378.88c10.24 0 20.48 10.24 25.6 20.48l92.16 394.24h-614.4zM381.44 25.600000000000023m-51.2 0a51.2 51.2 0 1 1 102.4 0 51.2 51.2 0 1 1-102.4 0ZM760.32 25.600000000000023m-51.2 0a51.2 51.2 0 1 1 102.4 0 51.2 51.2 0 1 1-102.4 0Z"  horiz-adv-x="1024" />

    
    <glyph glyph-name="play-volume" unicode="&#58946;" d="M307.2 40.960000000000036h-15.36c-20.48 5.12-35.84 15.36-51.2 30.72-10.24 10.24-15.36 25.6-15.36 40.96V650.24c5.12 40.96 40.96 76.8 81.92 76.8 15.36 0 30.72-5.12 40.96-15.36l399.36-266.24c35.84-25.6 46.08-71.68 20.48-107.52-5.12-10.24-15.36-15.36-20.48-20.48l-399.36-266.24c-10.24-5.12-25.6-10.24-40.96-10.24zM307.2 675.84c-15.36 0-25.6-10.24-25.6-25.6v-532.48c0-5.12 0-10.24 5.12-15.36 10.24-10.24 25.6-15.36 35.84-5.12l399.36 266.24c5.12 0 5.12 5.12 5.12 5.12 10.24 10.24 5.12 25.6-5.12 35.84L322.56 670.72c-5.12 0-10.24 5.12-15.36 5.12z"  horiz-adv-x="1024" />

    
    <glyph glyph-name="hifi-download" unicode="&#58948;" d="M834.56 168.96000000000004c5.12 15.36 20.48 20.48 30.72 15.36 15.36-5.12 20.48-20.48 15.36-30.72-20.48-76.8-97.28-133.12-179.2-133.12H317.44c-81.92 0-153.6 56.32-179.2 133.12-5.12 15.36 5.12 25.6 15.36 30.72s25.6-5.12 30.72-15.36c15.36-56.32 66.56-97.28 128-97.28h384c66.56 0 122.88 40.96 138.24 97.28zM512 199.67999999999995c-15.36 0-25.6 10.24-25.6 25.6V732.16c0 10.24 10.24 20.48 25.6 20.48s25.6-10.24 25.6-25.6v-501.76c0-10.24-10.24-25.6-25.6-25.6zM778.24 481.28c10.24 10.24 25.6 10.24 35.84 0 10.24-10.24 10.24-25.6 0-35.84L563.2 194.55999999999995c-30.72-30.72-76.8-30.72-107.52 0L204.8 440.32c-10.24 10.24-10.24 30.72 0 40.96 10.24 5.12 25.6 5.12 35.84 0L491.52 230.39999999999998c10.24-10.24 25.6-10.24 35.84 0l250.88 250.88z"  horiz-adv-x="1024" />

    
    <glyph glyph-name="mv-volume" unicode="&#58949;" d="M640 102.39999999999998h-460.8c-40.96 0-76.8 35.84-76.8 76.8V588.8c0 40.96 35.84 76.8 76.8 76.8h460.8c40.96 0 76.8-35.84 76.8-76.8v-409.6c0-40.96-35.84-76.8-76.8-76.8z m-460.8 512c-15.36 0-25.6-10.24-25.6-25.6v-409.6c0-15.36 10.24-25.6 25.6-25.6h460.8c15.36 0 25.6 10.24 25.6 25.6V588.8c0 15.36-10.24 25.6-25.6 25.6h-460.8zM870.4 199.67999999999995c-5.12 0-10.24 0-15.36 5.12L665.6 266.24V501.76l189.44 66.56c15.36 5.12 25.6 5.12 40.96 0 10.24-5.12 20.48-15.36 25.6-30.72v-291.84c0-25.6-20.48-46.08-51.2-46.08z m-153.6 102.4l153.6-56.32V517.12l-153.6-56.32v-158.72z"  horiz-adv-x="1024" />

    
    <glyph glyph-name="listplay" unicode="&#58953;" d="M166.822823 525.145946v-315.502703h160.518919l171.589189-149.448648v608.864864L327.341742 525.145946H166.822823z m138.378378 55.351351l154.983784 132.843244c22.140541 22.140541 60.886486 16.605405 77.491892-5.535136 11.07027-5.535135 16.605405-16.605405 16.605405-33.21081v-608.864865c0-33.210811-22.140541-55.351351-55.351351-55.351352-11.07027 0-27.675676 5.535135-38.745946 11.070271L305.201201 159.82702700000004H139.147147c-16.605405 0-27.675676 11.07027-27.675676 27.675676V552.8216219999999c0 16.605405 11.07027 27.675676 27.675676 27.675675h166.054054zM736.941742 43.58918900000003c-11.07027-11.07027-27.675676-5.535135-38.745946 5.535135-11.07027 11.07027-5.535135 27.675676 5.535135 38.745946 83.027027 66.421622 132.843243 171.589189 132.843243 282.291892 0 110.702703-49.816216 215.87027-132.843243 282.291892-11.07027 11.07027-11.07027 27.675676-5.535135 38.745946 11.07027 11.07027 27.675676 11.07027 38.745946 5.535135 99.632432-77.491892 154.983784-199.264865 154.983784-326.572973 0-127.308108-55.351351-249.081081-154.983784-326.572973zM681.59039 209.64324299999998c-11.07027-11.07027-27.675676-11.07027-38.745946 0-11.07027 11.07027-11.07027 27.675676 0 38.745946 33.210811 33.210811 55.351351 77.491892 55.351352 121.772973 0 44.281081-16.605405 83.027027-49.816216 116.237838-11.07027 11.07027-11.07027 27.675676 0 38.745946s27.675676 11.07027 38.745946 0c44.281081-44.281081 66.421622-99.632432 66.421621-154.983784 0-60.886486-22.140541-116.237838-71.956757-160.518919z"  horiz-adv-x="1024" />

    
    <glyph glyph-name="more" unicode="&#58977;" d="M780.597553 340.04353100000003L331.127178-111.90326500000003a63.14873 63.14873 0 0 0-89.151149 89.151149l407.371221 406.133011L241.976029 789.513906A63.14873 63.14873 0 0 0 331.127178 878.665054l449.470375-451.946795a59.434099 59.434099 0 0 0 0-86.674728z"  horiz-adv-x="1024" />

    
    <glyph glyph-name="success-desktop" unicode="&#58993;" d="M92.306286 358.107429a73.142857 73.142857 0 1 0 107.958857 98.742857l232.886857-254.829715a73.142857 73.142857 0 0 0-107.958857-98.742857L92.306286 358.180571zM903.314286 659.017143a73.142857 73.142857 0 0 0 95.085714-111.177143l-550.546286-470.308571a73.142857 73.142857 0 0 0-95.012571 111.177142l550.473143 470.308572z"  horiz-adv-x="1024" />

    
    <glyph glyph-name="add-desktop" unicode="&#58994;" d="M877.714286 457.142857a73.142857 73.142857 0 0 0 0-146.285714H146.285714a73.142857 73.142857 0 1 0 0 146.285714h731.428572zM585.142857 18.285713999999984a73.142857 73.142857 0 0 0-146.285714 0V749.714286a73.142857 73.142857 0 1 0 146.285714 0v-731.428572z"  horiz-adv-x="1024" />

    
    <glyph glyph-name="home_unlock" unicode="&#58971;" d="M739.555556-42.66666699999996H170.666667c-34.133333 0-56.888889 22.755556-56.888889 56.888889v398.222222c0 34.133333 22.755556 56.888889 56.888889 56.888889h568.888889c34.133333 0 56.888889-22.755556 56.888888-56.888889v-398.222222c0-34.133333-22.755556-56.888889-56.888888-56.888889z m-568.888889 455.111111v-398.222222h568.888889v398.222222H170.666667zM170.666667 440.888889v-28.444445V440.888889zM455.111111 213.33333300000004m-56.888889 0a56.888889 56.888889 0 1 1 113.777778 0 56.888889 56.888889 0 1 1-113.777778 0ZM568.888889 469.333333H512v113.777778c0 125.155556 102.4 227.555556 227.555556 227.555556s227.555556-102.4 227.555555-227.555556h-56.888889c0 96.711111-73.955556 170.666667-170.666666 170.666667s-170.666667-73.955556-170.666667-170.666667v-113.777778z"  horiz-adv-x="1024" />

    
    <glyph glyph-name="home_lock" unicode="&#58976;" d="M796.444444-42.66666699999996H227.555556c-34.133333 0-56.888889 22.755556-56.888889 56.888889v398.222222c0 34.133333 22.755556 56.888889 56.888889 56.888889h568.888888c34.133333 0 56.888889-22.755556 56.888889-56.888889v-398.222222c0-34.133333-22.755556-56.888889-56.888889-56.888889z m-568.888888 455.111111v-398.222222h568.888888v398.222222H227.555556zM227.555556 440.888889v-28.444445V440.888889zM739.555556 412.444444H284.444444v170.666667c0 125.155556 102.4 227.555556 227.555556 227.555556s227.555556-102.4 227.555556-227.555556v-170.666667z m-398.222223 56.888889h341.333334v113.777778c0 96.711111-73.955556 170.666667-170.666667 170.666667s-170.666667-73.955556-170.666667-170.666667v-113.777778zM512 213.33333300000004m-56.888889 0a56.888889 56.888889 0 1 1 113.777778 0 56.888889 56.888889 0 1 1-113.777778 0Z"  horiz-adv-x="1024" />

    
    <glyph glyph-name="home_more" unicode="&#58978;" d="M236.432723 378.37362599999994m-56.263736 0a56.263736 56.263736 0 1 1 112.527472 0 56.263736 56.263736 0 1 1-112.527472 0ZM517.751404 378.37362599999994m-56.263736 0a56.263736 56.263736 0 1 1 112.527472 0 56.263736 56.263736 0 1 1-112.527472 0ZM799.070085 378.37362599999994m-56.263736 0a56.263736 56.263736 0 1 1 112.527473 0 56.263736 56.263736 0 1 1-112.527473 0Z"  horiz-adv-x="1024" />

    
    <glyph glyph-name="followed" unicode="&#58979;" d="M460.8 139.37777800000003L193.422222 418.133333c-11.377778 11.377778-28.444444 11.377778-39.822222 0s-11.377778-28.444444 0-39.822222l284.444444-295.822222c11.377778-11.377778 28.444444-11.377778 39.822223 0l455.111111 455.111111c11.377778 11.377778 11.377778 28.444444 0 39.822222-11.377778 11.377778-28.444444 11.377778-39.822222 0l-432.355556-438.044444z"  horiz-adv-x="1024" />

    
    <glyph glyph-name="follow" unicode="&#58980;" d="M199.111111 327.11111100000005h688.355556c17.066667 0 28.444444 11.377778 28.444444 28.444445s-17.066667 28.444444-34.133333 28.444444h-682.666667c-17.066667 0-28.444444-11.377778-28.444444-28.444444s11.377778-28.444444 28.444444-28.444445zM568.888889 14.222221999999988v682.666667c0 17.066667-11.377778 28.444444-28.444445 28.444444s-28.444444-11.377778-28.444444-28.444444v-688.355556c0-11.377778 11.377778-22.755556 28.444444-22.755555s28.444444 11.377778 28.444445 28.444444z"  horiz-adv-x="1024" />

    
    <glyph glyph-name="barrage-mv" unicode="&#58981;" d="M146.285714 896h950.857143c80.457143 0 146.285714-65.828571 146.285714-146.285714v-731.428572c0-80.457143-65.828571-146.285714-146.285714-146.285714H146.285714c-80.457143 0-146.285714 65.828571-146.285714 146.285714V749.714286C0 830.171429 65.828571 896 146.285714 896z m0-73.142857c-43.885714 0-73.142857-29.257143-73.142857-73.142857v-731.428572c0-43.885714 29.257143-73.142857 73.142857-73.142857h950.857143c43.885714 0 73.142857 29.257143 73.142857 73.142857V749.714286c0 43.885714-29.257143 73.142857-73.142857 73.142857H146.285714zM804.571429 603.4285709999999V676.571429h73.142857v-73.142858h73.142857v-292.571428h-146.285714v-73.142857h146.285714v-73.142857h-146.285714v-73.142858h-73.142858v73.142858H585.142857V237.71428600000002h146.285714V310.85714299999995H585.142857V603.4285709999999h73.142857V676.571429h73.142857v-73.142858h73.142858z m-73.142858-73.142857H658.285714v-146.285714h73.142857V530.285714z m73.142858 0v-146.285714h73.142857V530.285714h-73.142857zM365.714286 384h146.285714v-292.571429H292.571429v73.142858h146.285714V310.85714299999995H292.571429V530.285714h146.285714V603.4285709999999H292.571429V676.571429h219.428571v-219.428572H365.714286v-73.142857z"  horiz-adv-x="1280" />

    
    <glyph glyph-name="mv-play" unicode="&#58982;" d="M146.285714 896h1097.142857c80.457143 0 146.285714-65.828571 146.285715-146.285714v-731.428572c0-80.457143-65.828571-146.285714-146.285715-146.285714H146.285714c-80.457143 0-146.285714 65.828571-146.285714 146.285714V749.714286C0 830.171429 65.828571 896 146.285714 896z m0-73.142857c-43.885714 0-73.142857-29.257143-73.142857-73.142857v-731.428572c0-43.885714 29.257143-73.142857 73.142857-73.142857h1097.142857c43.885714 0 73.142857 29.257143 73.142858 73.142857V749.714286c0 43.885714-29.257143 73.142857-73.142858 73.142857H146.285714zM599.771429 618.057143L877.714286 435.2c29.257143-14.628571 36.571429-51.2 14.628571-80.457143-7.314286-7.314286-7.314286-14.628571-14.628571-14.628571l-277.942857-182.857143c-29.257143-14.628571-65.828571-7.314286-80.457143 14.628571-7.314286 7.314286-7.314286 14.628571-7.314286 29.257143v365.714286c0 29.257143 29.257143 58.514286 58.514286 58.514286 14.628571 0 21.942857 0 29.257143-7.314286z"  horiz-adv-x="1365" />

    
    <glyph glyph-name="purchased" unicode="&#58983;" d="M146.285714 896h1536c80.457143 0 146.285714-65.828571 146.285715-146.285714v-731.428572c0-80.457143-65.828571-146.285714-146.285715-146.285714H146.285714c-80.457143 0-146.285714 65.828571-146.285714 146.285714V749.714286C0 830.171429 65.828571 896 146.285714 896z m0-73.142857c-43.885714 0-73.142857-29.257143-73.142857-73.142857v-731.428572c0-43.885714 29.257143-73.142857 73.142857-73.142857h1536c43.885714 0 73.142857 29.257143 73.142857 73.142857V749.714286c0 43.885714-29.257143 73.142857-73.142857 73.142857H146.285714zM1462.857143 91.42857100000003h-219.428572v73.142858h219.428572V603.4285709999999h-292.571429V749.714286h73.142857v-73.142857h292.571429v-585.142858h-73.142857z m-658.285714 73.142858v-73.142858H292.571429V530.285714h73.142857v-73.142857h365.714285V603.4285709999999H292.571429V676.571429h512v-292.571429H365.714286v-219.428571h365.714285V237.71428600000002h73.142858v-73.142857z m585.142857 146.285714v-73.142857h-219.428572V530.285714h73.142857v-219.428571h73.142858V384h73.142857v-73.142857z m-365.714286 292.571428h-73.142857v-219.428571h-73.142857V676.571429h219.428571v-292.571429h-73.142857V603.4285709999999z m-146.285714-365.714285h73.142857v-146.285715h-73.142857V237.71428600000002z m73.142857 146.285714h73.142857v-146.285714h-73.142857V384z m73.142857-146.285714h73.142857v-146.285715h-73.142857V237.71428600000002z"  horiz-adv-x="1962" />

    
    <glyph glyph-name="nondestructive" unicode="&#58984;" d="M658.285714 91.42857100000003H585.142857V384H512v-73.142857H438.857143V384H292.571429V457.142857h219.428571V603.4285709999999H292.571429V676.571429h512v-73.142858H585.142857v-146.285714h219.428572v-73.142857H658.285714v-219.428571h146.285715v-73.142858H658.285714z m292.571429 219.428572h-73.142857V384h73.142857V530.285714h-73.142857V603.4285709999999h73.142857V676.571429h73.142857v-585.142858h-146.285714v73.142858h73.142857V310.85714299999995z m365.714286 0v-73.142857h-73.142858V310.85714299999995h-73.142857v-73.142857h-73.142857V384h365.714286v-146.285714h-73.142857V310.85714299999995h-73.142857z m-146.285715 146.285714h-73.142857V676.571429h365.714286v-219.428572h-292.571429z m0 73.142857h219.428572V603.4285709999999h-219.428572v-73.142857zM160.914286 896h1433.6C1682.285714 896 1755.428571 822.857143 1755.428571 727.771429v-680.228572c0-95.085714-73.142857-168.228571-160.914285-168.228571H160.914286C73.142857-128 0-54.85714299999995 0 40.22857099999999V727.771429C0 822.857143 73.142857 896 160.914286 896z m-7.314286-73.142857C109.714286 822.857143 73.142857 786.285714 73.142857 735.085714v-702.171428c0-51.2 36.571429-87.771429 80.457143-87.771429h1448.228571c43.885714 0 80.457143 36.571429 80.457143 87.771429V735.085714c0 51.2-36.571429 87.771429-80.457143 87.771429H153.6zM365.714286 310.85714299999995h73.142857v-146.285714H365.714286V310.85714299999995z m-73.142857-146.285714h73.142857v-73.142858H292.571429v73.142858z m877.714285 73.142857h73.142857v-73.142857h-73.142857V237.71428600000002z m-73.142857-73.142857h73.142857v-73.142858h-73.142857v73.142858z m292.571429 0h73.142857v-73.142858h-73.142857v73.142858z m-73.142857 73.142857h73.142857v-73.142857h-73.142857V237.71428600000002z"  horiz-adv-x="1877" />

    
    <glyph glyph-name="super-quality" unicode="&#58985;" d="M1609.142857 896H146.285714C65.828571 896 0 830.171429 0 749.714286v-731.428572c0-80.457143 65.828571-146.285714 146.285714-146.285714h1462.857143c80.457143 0 146.285714 65.828571 146.285714 146.285714V749.714286c0 80.457143-65.828571 146.285714-146.285714 146.285714z m73.142857-877.714286c0-43.885714-29.257143-73.142857-73.142857-73.142857H146.285714c-43.885714 0-73.142857 29.257143-73.142857 73.142857V749.714286c0 43.885714 29.257143 73.142857 73.142857 73.142857h1462.857143c43.885714 0 73.142857-29.257143 73.142857-73.142857v-731.428572zM585.142857 603.4285709999999h73.142857v-73.142857h73.142857V603.4285709999999h73.142858v-146.285714h73.142857V676.571429H585.142857zM658.285714 384H585.142857v-219.428571H365.714286V237.71428600000002h146.285714V310.85714299999995H438.857143V384h73.142857V457.142857H438.857143V530.285714h73.142857V603.4285709999999H438.857143V676.571429H365.714286v-73.142858H292.571429v-73.142857h73.142857v-73.142857H292.571429v-73.142857h73.142857v-73.142857H292.571429v-219.428572h585.142857V384H658.285714z m146.285715-219.428571H658.285714V310.85714299999995h146.285715v-146.285714zM585.142857 530.285714h73.142857v-73.142857H585.142857zM950.857143 384v-292.571429h219.428571V384h-219.428571z m146.285714-219.428571h-73.142857V310.85714299999995h73.142857v-146.285714zM1389.714286 384h-146.285715v-292.571429h219.428572V384h-73.142857z m0-219.428571h-73.142857V310.85714299999995h73.142857v-146.285714zM1389.714286 676.571429h-365.714286v-219.428572h365.714286V676.571429z m-73.142857-146.285715h-219.428572V603.4285709999999h219.428572v-73.142857z"  horiz-adv-x="1877" />

    
    <glyph glyph-name="high-quality" unicode="&#58986;" d="M146.285714 896h1462.857143c80.457143 0 146.285714-65.828571 146.285714-146.285714v-731.428572c0-80.457143-65.828571-146.285714-146.285714-146.285714H146.285714c-80.457143 0-146.285714 65.828571-146.285714 146.285714V749.714286C0 830.171429 65.828571 896 146.285714 896z m0-73.142857c-43.885714 0-73.142857-29.257143-73.142857-73.142857v-731.428572c0-43.885714 29.257143-73.142857 73.142857-73.142857h1462.857143c43.885714 0 73.142857 29.257143 73.142857 73.142857V749.714286c0 43.885714-29.257143 73.142857-73.142857 73.142857H146.285714zM950.857143 384v-292.571429h219.428571V384h-219.428571z m146.285714-219.428571h-73.142857V310.85714299999995h73.142857v-146.285714zM1389.714286 384h-146.285715v-292.571429h219.428572V384h-73.142857z m0-219.428571h-73.142857V310.85714299999995h73.142857v-146.285714zM585.142857 749.714286H512v-73.142857H292.571429v-73.142858h73.142857v-146.285714h365.714285V603.4285709999999h73.142858V676.571429H585.142857V749.714286z m73.142857-146.285715v-73.142857H438.857143V603.4285709999999h219.428571zM292.571429 310.85714299999995v-219.428572h73.142857V310.85714299999995h365.714285v-219.428572h73.142858V384H292.571429zM512 237.71428600000002H438.857143v-146.285715h73.142857v73.142858h73.142857v-73.142858h73.142857V237.71428600000002H585.142857zM1389.714286 676.571429h-365.714286v-219.428572h365.714286V676.571429z m-73.142857-146.285715h-219.428572V603.4285709999999h219.428572v-73.142857z"  horiz-adv-x="1877" />

    
    <glyph glyph-name="audition" unicode="&#58987;" d="M160.914286 896h1587.2C1828.571429 896 1901.714286 822.857143 1901.714286 727.771429v-680.228572c0-95.085714-73.142857-168.228571-160.914286-168.228571H160.914286C73.142857-128 0-54.85714299999995 0 40.22857099999999V727.771429C0 822.857143 73.142857 896 160.914286 896z m-7.314286-73.142857C109.714286 822.857143 73.142857 786.285714 73.142857 735.085714v-702.171428c0-51.2 36.571429-87.771429 80.457143-87.771429h1594.514286c43.885714 0 80.457143 36.571429 80.457143 87.771429V735.085714c0 51.2-36.571429 87.771429-80.457143 87.771429H153.6zM365.714286 164.57142899999997V457.142857H292.571429V530.285714h146.285714v-438.857143H292.571429v73.142858h73.142857z m292.571428 219.428571v-219.428571h73.142857v-73.142858H512v73.142858h73.142857V384H512V457.142857h219.428571V530.285714H512V603.4285709999999h219.428571V676.571429h73.142858v-73.142858h73.142857v-73.142857h-73.142857v-219.428571h-73.142858V384H658.285714z m877.714286 0v-292.571429h-73.142857V384h-146.285714v-292.571429h-73.142858V603.4285709999999h146.285715v-73.142857h-73.142857v-73.142857h292.571428v-73.142857h-73.142857z m-365.714286 146.285714v-365.714285h-219.428571V603.4285709999999h219.428571v-73.142857z m-73.142857 0h-73.142857v-292.571428h73.142857V530.285714zM365.714286 676.571429h73.142857v-73.142858H365.714286V676.571429z m1024 0h219.428571v-73.142858h-219.428571V676.571429z m-585.142857-365.714286h73.142857v-146.285714h-73.142857V310.85714299999995z m73.142857-146.285714h73.142857v-73.142858h-73.142857v73.142858z"  horiz-adv-x="2048" />

    
    <glyph glyph-name="fluent" unicode="&#58988;" d="M146.285714 896h1462.857143c80.457143 0 146.285714-65.828571 146.285714-146.285714v-731.428572c0-80.457143-65.828571-146.285714-146.285714-146.285714H146.285714c-80.457143 0-146.285714 65.828571-146.285714 146.285714V749.714286C0 830.171429 65.828571 896 146.285714 896z m0-73.142857c-43.885714 0-73.142857-29.257143-73.142857-73.142857v-731.428572c0-43.885714 29.257143-73.142857 73.142857-73.142857h1462.857143c43.885714 0 73.142857 29.257143 73.142857 73.142857V749.714286c0 43.885714-29.257143 73.142857-73.142857 73.142857H146.285714zM1097.142857 530.285714V603.4285709999999h-73.142857V676.571429h-73.142857v-73.142858h-73.142857v-365.714285h73.142857v-146.285715h73.142857V237.71428600000002h73.142857V530.285714z m-73.142857-219.428571h-73.142857V530.285714h73.142857v-219.428571zM585.142857 530.285714h219.428572V603.4285709999999H658.285714V676.571429H585.142857v-73.142858H438.857143v-73.142857h73.142857v-73.142857h73.142857zM804.571429 310.85714299999995V457.142857h-73.142858v-73.142857H512V457.142857H438.857143v-365.714286h73.142857V310.85714299999995h73.142857v-219.428572h73.142857V310.85714299999995h73.142857v-219.428572h146.285715v73.142858h-73.142857zM1389.714286 603.4285709999999V676.571429h-219.428572v-73.142858h146.285715v-73.142857h73.142857zM292.571429 676.571429h73.142857v-73.142858H292.571429zM292.571429 530.285714h73.142857v-146.285714H292.571429zM292.571429 310.85714299999995h73.142857v-219.428572H292.571429zM1316.571429 457.142857V530.285714h-73.142858v-73.142857h-73.142857v-73.142857h73.142857v-73.142857h73.142858V384h73.142857v-219.428571h-73.142857v-73.142858h146.285714V457.142857zM1170.285714 237.71428600000002v-73.142857h73.142857V310.85714299999995h-73.142857zM1097.142857 164.57142899999997h73.142857v-73.142858h-73.142857z"  horiz-adv-x="1877" />

    
    <glyph glyph-name="new" unicode="&#58989;" d="M1536 896H146.285714C65.828571 896 0 830.171429 0 749.714286v-731.428572c0-80.457143 65.828571-146.285714 146.285714-146.285714h1389.714286c80.457143 0 146.285714 65.828571 146.285714 146.285714V749.714286c0 80.457143-65.828571 146.285714-146.285714 146.285714zM585.142857 530.285714v-438.857143H512V530.285714H365.714286v-438.857143H292.571429V603.4285709999999h292.571428v-73.142857z m365.714286 0h-219.428572v-146.285714h219.428572v-73.142857h-219.428572v-146.285714h219.428572v-73.142858H658.285714V603.4285709999999h292.571429v-73.142857z m438.857143-365.714285v-73.142858h-365.714286V603.4285709999999h73.142857v-438.857142h73.142857V603.4285709999999h73.142857v-438.857142h73.142858V603.4285709999999h73.142857v-438.857142z"  horiz-adv-x="1792" />

    
    <glyph glyph-name="vip" unicode="&#58990;" d="M804.571429 164.57142899999997v-73.142858H292.571429V237.71428600000002h73.142857v-73.142857h365.714285V237.71428600000002h73.142858v-73.142857zM438.857143 310.85714299999995v-73.142857H365.714286V310.85714299999995H292.571429V384h438.857142v-73.142857H438.857143z m146.285714 365.714286h146.285714v-73.142858H365.714286V676.571429h146.285714V749.714286h73.142857v-73.142857z m512-365.714286h-146.285714v-146.285714h-73.142857V384h512v-219.428571h-73.142857V310.85714299999995h-146.285715v-73.142857h-73.142857V310.85714299999995z m-146.285714 146.285714h-73.142857V676.571429h512v-219.428572h-438.857143z m0 73.142857h365.714286V603.4285709999999h-365.714286v-73.142857z m73.142857-292.571428h73.142857v-73.142857h-73.142857V237.71428600000002z m-73.142857-73.142857h73.142857v-73.142858h-73.142857v73.142858z m-73.142857-73.142858h73.142857v-73.142857h-73.142857v73.142857z m365.714285 73.142858h73.142858v-73.142858h-73.142858v73.142858z m73.142858-73.142858h73.142857v-73.142857h-73.142857v73.142857z m-146.285715 146.285715h73.142857v-73.142857h-73.142857V237.71428600000002zM292.571429 603.4285709999999h73.142857v-73.142857H292.571429V603.4285709999999z m438.857142 0h73.142858v-73.142857h-73.142858V603.4285709999999zM365.714286 530.285714h365.714285v-73.142857H365.714286V530.285714zM146.285714 896h1389.714286c80.457143 0 146.285714-65.828571 146.285714-146.285714v-731.428572c0-80.457143-65.828571-146.285714-146.285714-146.285714H146.285714c-80.457143 0-146.285714 65.828571-146.285714 146.285714V749.714286C0 830.171429 65.828571 896 146.285714 896z m0-73.142857c-43.885714 0-73.142857-29.257143-73.142857-73.142857v-731.428572c0-43.885714 29.257143-73.142857 73.142857-73.142857h1389.714286c43.885714 0 73.142857 29.257143 73.142857 73.142857V749.714286c0 43.885714-29.257143 73.142857-73.142857 73.142857H146.285714z"  horiz-adv-x="1792" />

    
    <glyph glyph-name="head" unicode="&#58991;" d="M192 320h576c70.4 0 128-57.6 128-128v-192c0-38.4-25.6-64-64-64H128c-38.4 0-64 25.6-64 64v192c0 70.4 57.6 128 128 128z m0-64c-38.4 0-64-25.6-64-64v-192h704v192c0 38.4-25.6 64-64 64H192zM480 832H704v-224C704 486.4 601.6 384 480 384S256 486.4 256 608 358.4 832 480 832zM640 768H480C390.4 768 320 697.6 320 608S390.4 448 480 448 640 518.4 640 608V768z"  horiz-adv-x="1024" />

    
    <glyph glyph-name="sort" unicode="&#58992;" d="M96 64h512c19.2 0 32-12.8 32-32s-12.8-32-32-32h-512c-19.2 0-32 12.8-32 32s12.8 32 32 32zM96 448h512c19.2 0 32-12.8 32-32s-12.8-32-32-32h-512c-19.2 0-32 12.8-32 32s12.8 32 32 32zM96 832h512c19.2 0 32-12.8 32-32s-12.8-32-32-32h-512c-19.2 0-32 12.8-32 32s12.8 32 32 32zM800 832c19.2 0 32-12.8 32-32V0h-64V800c0 19.2 12.8 32 32 32zM832 128h64v-64h-64zM896 192h64v-64h-64z"  horiz-adv-x="1024" />

    
    <glyph glyph-name="hifi-screen" unicode="&#58995;" d="M736 448h192c19.2 0 32-12.8 32-32s-12.8-32-32-32h-192c-19.2 0-32 12.8-32 32s12.8 32 32 32zM736 64h192c19.2 0 32-12.8 32-32s-12.8-32-32-32h-192c-19.2 0-32 12.8-32 32s12.8 32 32 32zM736 256h192c19.2 0 32-12.8 32-32s-12.8-32-32-32h-192c-19.2 0-32 12.8-32 32s12.8 32 32 32zM537.6-96c-6.4 0-12.8 0-19.2 6.4l-230.4 140.8c-19.2 6.4-32 25.6-32 51.2V448L25.6 729.6C0 755.2 6.4 793.6 32 819.2c12.8 6.4 25.6 12.8 38.4 12.8h684.8c38.4 0 64-25.6 64-64 0-12.8-6.4-32-12.8-38.4L576 448v-505.6c0-12.8-6.4-25.6-19.2-32-6.4-6.4-12.8-6.4-19.2-6.4zM70.4 768L320 473.6v-371.2l192-115.2V473.6L761.6 768H70.4z"  horiz-adv-x="1024" />

    
    <glyph glyph-name="circle" unicode="&#58996;" d="M512-51.200000000000045c238.933333 0 435.2 196.266667 435.2 435.2S750.933333 819.2 512 819.2 76.8 622.933333 76.8 384c0-25.6 25.6-51.2 51.2-51.2s51.2 25.6 51.2 51.2c0 187.733333 145.066667 332.8 332.8 332.8S844.8 571.733333 844.8 384 699.733333 51.200000000000045 512 51.200000000000045c-25.6 0-51.2-25.6-51.2-51.2s25.6-51.2 51.2-51.2z"  horiz-adv-x="1024" />

    
    <glyph glyph-name="origin-sing" unicode="&#58997;" d="M1536 896c80.457143 0 146.285714-65.828571 146.285714-146.285714v-731.428572c0-80.457143-65.828571-146.285714-146.285714-146.285714H146.285714c-80.457143 0-146.285714 65.828571-146.285714 146.285714V749.714286C0 830.171429 65.828571 896 146.285714 896h1389.714286z m0-73.142857H146.285714c-43.885714 0-73.142857-29.257143-73.142857-73.142857v-731.428572c0-43.885714 29.257143-73.142857 73.142857-73.142857h1389.714286c43.885714 0 73.142857 29.257143 73.142857 73.142857V749.714286c0 43.885714-29.257143 73.142857-73.142857 73.142857z m-731.428571-658.285714v-73.142858h-73.142858v73.142858h73.142858z m-512 0h73.142857V530.285714h146.285714V603.4285709999999H292.571429v-438.857142z m1097.142857 512v-219.428572h73.142857v-365.714286h-365.714286V237.71428600000002h-146.285714v-73.142857h-73.142857V603.4285709999999h219.428571v-146.285714h73.142857V676.571429h219.428572zM219.428571 164.57142899999997v-73.142858H146.285714v73.142858h73.142857z m292.571429 146.285714H438.857143v-146.285714h73.142857V310.85714299999995z m877.714286-73.142857h-219.428572v-73.142857h219.428572V237.71428600000002z m-365.714286 292.571428h-73.142857v-219.428571h73.142857V530.285714z m365.714286-146.285714h-219.428572v-73.142857h219.428572V384zM658.285714 457.142857H438.857143v-73.142857h219.428571V457.142857z m658.285715 146.285714h-73.142858v-146.285714h73.142858V603.4285709999999zM292.571429 164.57142899999997H219.428571V676.571429h585.142858v-73.142858H585.142857v-73.142857h146.285714v-365.714285H658.285714V310.85714299999995H585.142857v-219.428572H438.857143v73.142858H365.714286v-73.142858H292.571429v73.142858z"  horiz-adv-x="1682" />

    


  </font>
</defs>
</svg>
